<?xml version="1.0" encoding="UTF-8"?>
<svg id="Layer_1" data-name="Layer 1" xmlns="http://www.w3.org/2000/svg" viewBox="0 0 433.58 421.98">
  <defs>
    <style>
      .cls-1 {
        fill: #1d1e2a;
      }
    </style>
  </defs>
  <path class="cls-1" d="M293.26,140.27c3.05,2.67,6.4,3.34,8.95,1.1,2.4-2.11,5.14-6.09,4.57-8.59-1.39-5.94-4.24-11.69-7.25-17.13-2.62-4.74-8.55-6.4-13.52-4.07-4.62,2.17-8.85,5.13-13.35,7.81,1.44,2.98,1.99,6.03,3.91,7.71,5.29,4.66,11.39,8.51,16.69,13.18M247.08,251.05c1.97.09,3.93.23,5.88.2,1.57-.03,3.82.3,4.57-.51,4.73-5.17,8.99-10.47,11.31-17.33,1.21-3.61,5.36-8.05,8.97-8.85,7.47-1.64,12.56,4.1,16.83,9.03,3.46,3.96,7.08,5.94,12.27,4.41,10.59-3.15,15.3-14.87,9.36-24.47-4.19-6.8-7.95-14.14-16.32-17.6-.74-.31-.9-1.79-1.46-2.63-3.73-5.64-4.39-14.26-15.14-13.18.71-1.3,1.2-2.15,1.62-2.93-3.65-2.74-8.13-4.9-10.72-8.34-3.2-4.25-6.65-7.42-12.11-7.12-5.02.29-11.28.17-14.6,2.87-3.9,3.16-6.35,8.99-7.32,14.03-.92,4.89,1.31,10.25,1.23,15.39-.08,6.19-.84,12.4-1.83,18.52-.65,3.96-2.57,7.72-3.33,11.67-1.19,6.17-1.19,12.62-3.04,18.56-1.44,4.66,1.01,6.57,4.21,7.66,2.91.99,6.38.49,9.59.63M350.73,144.21c.57,0,6.41-.79,6.75-1.23,2.28-2.94,2.42-11.14-.67-13.78-2.35-2.01-4.66,1.53-7.74.65-2.48-.7-5.35-.52-7.97-.25-1.96.2-4.22.73-5.67,1.88-7.28,5.76-12.76,11.14-13.89,19.47-1.14,8.39,2.83,18.34,11.28,21.15,6.08,2.02,22.95,6.1,19.79,15.21-.85,5.08-10.02,8.49-10.82,13.58-1.09,6.99,4.64,11.95,12.26,14.9,4.47-7.19,13.99-10.32,15.87-19.41.78.06,5.88-7.63,2.72-19.27-1.83-6.76-7.87-11.21-15.12-12.71-30.55-6.32-12.15-20.33-6.79-20.18M433.49,137.19c-.56-7.72-2.3-15.39-3.89-21.97-.35-1.45-1.5-2.51-2.6-3.54-.84-.78-1.7-1.59-1.89-2.33-1.42-5.23-4.85-9.02-8.16-12.69-1.85-2.03-3.57-3.96-5.01-6.12-1.67-2.55-4.12-3.75-6.49-4.9-2.46-1.21-4.79-2.36-6.36-5-3.65-6.19-9.16-11.43-14.49-16.5-2.03-1.93-4.07-3.87-6.01-5.87-1.38-1.42-3.27-2.39-4.92-3.18-2.48-1.2-4.99-2.35-7.51-3.49-4.16-1.91-8.47-3.88-12.57-6.02-1.76-.92-3.7-1.48-5.58-2.03-3.43-1-6.69-1.94-8.61-5.02-.36-.57-.96-.69-1.38-.69-.1,0-.21.01-.27.01l-1-.41c-2.31-.96-4.62-1.92-6.9-2.96-.62-.29-1.23-.68-1.83-1.07-1.36-.87-2.77-1.77-4.39-1.77-9.81,0-18.16-3.81-27.69-9.52-3.67-2.2-7.28-4.69-10.76-7.1-4.14-2.87-8.42-5.83-13.25-8.56-5.36-3.03-11.42-6.47-17.22-6.47-.28,0-.57,0-.85.03-8.65.52-17.19,2.56-25.43,4.52-5.21,1.24-10.62,2.52-15.99,3.41-8.74,1.45-17.25,4.65-25.47,7.76-3.6,1.36-7.19,2.72-10.81,3.93-3.15,1.06-6.29,2.17-9.42,3.28-6.72,2.37-13.67,4.83-20.63,6.73l-3.09.82c-7.53,1.96-15.32,3.98-20.8,10.62-.25.29-.62.53-.74.56-8.97.31-14.57,4.68-16.65,12.96-.06.14-.45.46-.89.81,0,0-10.88,8.85-13.23,10.78-3.15,2.6-6.28,5.22-9.41,7.84-7.5,6.28-15.27,12.78-23.21,18.77-1.01.75-2.1,1.38-3.18,2.01-3,1.71-6.09,3.49-7.35,7.56-.17.55-1.73,1.58-2.86,1.74-6.37.91-8.88,5.42-11.08,9.4l-.99,1.75c-.4.7-.81,1.54-1.2,2.39-.57,1.18-1.6,3.38-2.17,3.59-7.98.95-11.05,6.91-13.52,11.69l-.78,1.49c-2.93,5.47-4.23,12.29-5.37,18.32l-.1.56c-1.72,9.15-3.71,16.72-7.78,23.85l-.26.46c-.7,1.24-1.52,2.64-1.45,4.11.14,2.56.18,5.13.22,7.72.1,6.56.19,13.35,2.1,19.61,4.13,13.52,9.52,26.9,14.72,39.85,1.29,3.18,2.56,6.35,3.81,9.53,2.54,6.39,5.38,12.79,8.13,18.96,1.42,3.22,2.85,6.43,4.25,9.66.57,1.35,1.07,2.77,1.57,4.18,1.08,3.11,2.21,6.32,4.28,8.94,1.49,1.89,2.62,3.83,3.81,5.89.67,1.13,1.32,2.24,2.03,3.34,3.09,4.83,6.69,9.44,10.17,13.9,1.39,1.78,2.77,3.55,4.12,5.34l1.58,2.1c1.62,2.16,3.23,4.32,4.97,6.38,5.49,6.51,11.02,12.98,16.65,19.38,1.97,2.21,3.99,4.36,6.03,6.51,1.55,1.63,3.11,3.27,4.62,4.94.8.88,1.62,1.75,2.44,2.62,2.47,2.62,5.01,5.33,6.97,8.27,1,1.47,1.58,3.23,2.21,5.09.57,1.72,1.17,3.5,2.13,5.12.36.6.66,1.31.97,2.03.99,2.33,2.37,5.52,6.08,5.52.98,0,2.04-.22,3.23-.68.21.13.47.35.62.53,3.53,4.4,7.93,9.1,15.39,9.1h.7c.34,0,1.07.51,1.58.9.49.35.98.71,1.48.96.9.48,1.79,1.05,2.68,1.62,2.5,1.61,5.07,3.26,8.34,3.26,1.02,0,2.05-.17,3.11-.5.31.47.7,1.14.87,1.59.22.55.24,1.25.28,1.98l.17,1.49,1.52-.44c.82-.23,1.58-.52,2.31-.79,1.19-.45,2.22-.83,3.34-.83.02,0,.04,0,.05,0,1.9.19,3.77.77,5.75,1.37,1.04.32,2.06.63,3.1.9,10.01,2.55,20.74,4.9,31.55,4.9,6.59,0,12.67-.85,18.58-2.59,2.36-.69,4.8-1.06,7.39-1.44,2.32-.34,4.73-.7,7.04-1.32,3.43-.92,17.17-5.69,18.11-9.03.29-1.03.07-2.71-.33-5.34-.2-1.39-.46-3.12-.38-3.69l.23-1.36-1.44-.08c-.58-.04-1.19-.12-1.77-.2-.92-.12-1.82-.24-2.69-.24-.67,0-1.26.06-1.82.2-2.44.61-4.84,1.37-7.23,2.13-2.63.83-5.36,1.7-8.09,2.32l-.81.19c-6.36,1.43-12.94,2.91-19.45,3.38-.86.06-1.71.09-2.55.09-7.97,0-15.77-2.63-23.85-8.03-4.88-3.27-10.02-4.99-14.88-4.99-3.38,0-6.52.84-9.36,2.5-1.57.93-2.86,1.39-3.83,1.39-1.34,0-2.16-.91-3.52-2.5-.45-.54-.92-1.1-1.43-1.63-1.2-1.23-2.79-2.01-3.87-2.54-.22-.11-.42-.2-.6-.29l-2.96-3.99c-1.09-1.48-2.61-2.41-4.09-3.31-2.32-1.43-4.34-2.67-4.5-5.88-.2-4.33-6.63-8.72-11.42-9.68,1.08-4.17.53-8.75-1.52-12.04-1.21-1.98-2.9-3.35-4.82-3.95-.03-.18-.05-.37-.07-.57-.14-1.2-.3-2.56-1.18-3.56-2.12-2.41-4.38-4.71-6.65-7.01-1.49-1.51-2.98-3.02-4.42-4.57-7.71-8.25-15.37-16.55-23.03-24.84l-2.45-2.68c-.04-.23-.09-.53-.25-.85-9.19-17.58-18.36-35.15-27.56-52.72-.31-.61-.69-1.2-1.06-1.79-.47-.74-.95-1.48-1.27-2.28-.83-2.02-1.67-4.01-2.51-6.03-2.45-5.87-4.98-11.94-7-18.03-1.87-5.64-3.41-11.51-4.89-17.18-.8-3.04-1.6-6.08-2.46-9.12-.42-1.51-.93-3.02-1.42-4.51-.67-1.96-1.33-3.92-1.81-5.93-1.39-5.9,3.32-31.2,5.3-36.88,2.57-7.41,7.03-13.74,13.61-19.34l2.53-2.15c3.7-3.11,7.52-6.32,10.81-9.92l1.33-1.47c7.14-7.89,13.9-15.34,25.58-16.18,1-.08,2.03-.55,3.2-1.44,2.97-2.27,5.93-4.56,8.89-6.86,4.76-3.69,9.51-7.38,14.34-10.99l4.24-3.22c5.54-4.21,11.26-8.55,17.29-12.15,7.03-4.2,13.8-7.12,20.66-8.9,9.14-2.38,18.86-5.67,30.62-10.35,4.62-1.83,9.13-4.04,13.49-6.17,4.32-2.12,8.79-4.31,13.33-6.11l2.43-.97c5.96-2.43,11.59-4.71,17.98-4.71,2.02,0,3.97.22,5.97.7,3.79.88,7.7.99,10.69.99,1.55,0,3.11-.04,4.66-.06,1.54-.04,3.09-.07,4.62-.07,1.13,0,2.27.02,3.39.07,1.92.08,4.01.66,5.57,1.53,4.58,2.54,9.1,5.18,13.62,7.82,2.97,1.73,5.93,3.45,8.9,5.16.68.39,1.39.5,2.03.61.44.07.88.14,1.11.28,4.03,2.33,8.02,4.7,12.01,7.08l6.54,3.89c.73.43,1.5.84,2.27,1.24.67.34,1.33.69,1.97,1.06,3.29,1.91,6.58,3.82,9.81,5.79,1.01.6,1.97,1.27,2.95,1.92,1.78,1.21,3.63,2.45,5.64,3.4,2.52,1.19,5.13,2.21,7.75,3.23,2.49.98,5,1.96,7.43,3.09,6.33,2.96,9.97,8.16,13.84,13.68,2.16,3.08,4.39,6.26,7.12,9,2.48,2.49,4.77,5.28,7.01,7.96,1.84,2.22,3.68,4.44,5.66,6.56,3.07,3.31,6.47,6.43,10.07,9.28,3.43,2.71,3.62,6.21,3.86,10.27.15,2.67.31,5.42,1.49,8.02.98,2.17.57,5.03.14,8.05-.36,2.53-.74,5.14-.42,7.78.78,6.35-.05,13.07-.88,19.56-.23,1.8-.44,3.58-.64,5.37-1.52,14.08-2.9,25.92-4.72,37.91l-.52,3.51c-1.67,11.08-3.39,22.55-6.26,33.51-3.97,15.17-12.23,28.31-19.78,39.17-2.38,3.42-4.66,6.89-6.93,10.36-3.31,5.02-6.7,10.22-10.36,15.12-1.44,1.94-3.49,3.49-5.65,5.15-1.44,1.08-2.91,2.21-4.23,3.47-2.69,2.57-5.01,5.4-7.34,8.32-.63.78-1.12,1.7-1.62,2.61-.6,1.14-1.18,2.21-1.99,2.84-10.4,8.07-20.93,16.01-31.46,23.94l-6.78,5.12c-.34.25-.73.45-1.1.66-.57.3-1.21.64-1.76,1.13-2.37,2.08-4.7,4.21-7.02,6.32l-3.58,3.26,1.11.9c.16.13.29.27.5.5.28.29.59.57.92.84.55.5,1.1.97,1.34,1.46,2.26,4.44,6.83,7.32,11.63,7.32,1.09,0,2.16-.16,3.21-.45,17.38-4.94,32.9-9.75,47.04-18.67,2.06-1.31,4.16-2.57,6.26-3.84,6.12-3.7,12.45-7.52,17.84-12.21,11.34-9.9,20.75-21.66,27.96-34.99,1.67-3.1,3.72-6.89-.23-9.91.65-.91,1.31-1.79,1.96-2.65,1.98-2.64,3.87-5.13,4.99-8,1.85-4.75,3.26-9.72,4.62-14.52.71-2.54,1.43-5.06,2.2-7.57.32-1.03.86-2.03,1.43-3.09.02-.04.02-.07.04-.09l4.62,3.63.7-1.53c.17-.38.38-.78.59-1.17.52-.96,1.1-2.05,1.34-3.25l1-4.97c1.39-6.85,2.82-13.94,3.83-20.98.35-2.53.82-5.05,1.27-7.57,1.5-8.15,3.03-16.56,1.07-25.22-.35-1.55-.11-3.28.15-5.11.12-.82.24-1.62.3-2.42.26-3.2.51-6.4.75-9.59.6-8.01,1.24-16.3,2.25-24.38.54-4.2,1.78-8.43,2.99-12.53.47-1.59.94-3.18,1.38-4.77.22-.85.56-1.67.9-2.5.54-1.29,1.08-2.64,1.27-4.09l.45-3.35c.66-4.66,1.34-9.49,1-14.23M181.67,64.13c.58.76,1.18,1.53,1.77,2.3,2.82-.21,5.67-.3,8.46-.66,1.96-.26,5.04-1.84,5.64-1.18,8.46,9.06,11.68.31,15.58-4.22,4.09-4.74,2.2-9.09-4.24-9.27-8.43-.25-16.75.47-22.76,7.83-1.98,2.41-5.83,4.1-9.13,4.77-9.93,2.01-19.38,4.35-24.35,13.86,1.4,1.79,2.74,3.48,3.39,4.32,9.1-2.7,17.64-5.24,24.81-7.37.35-4.37.58-7.38.84-10.37M191.64,343.34c.14.12.22.29.32.44.3-.21.62-.41.92-.62.24,2.72,3.65,4.22,3.84,6.32,3.89-1.35,3.99-1.27,7.36-2.45,0-1,4.79-3.85,5.42-5.13,2.45-5.03,10.79-10.99,11.39-11.51,3.18-2.69,6.22-5.61,8.87-8.78,1.39-1.67,5.81-20.41,4.76-27.67-.96-6.56-13-24.08-15.32-26.15-4.13-3.69-23.6-14.9-24.98-15.76-2.19-1.37-4.08-3.2-6.47-5.14,2.11-2.16-.29-3.25-3.34-5.26-3.22-2.13-5.33-5.77-7.91-8.77-.01,0,.25-.23.32-.28.95,0-3.58-6-3.38-8.03.26-2.57.67-5.52-.36-7.74-3.78-8.28-.16-16.61,9-18.37,5.16-.99,10.6-.54,15.83-1.29,2.25-.31,5.68-1.6,6.16-3.14,1.57-4.84,1.52-10.11,2.98-14.99,1.28-4.31,3.76-8.31,6.1-13.28-2.72-5.04-3.86-3.71-4.86-1.05-.66-.12-1.31-.23-1.96-.35.37-5.93-5.89-5.39-7.46-4.62-2.32,1.13-5.38,1.32-8.1,1.2-14.22-.63-28.4-1.66-40.83,7.26-3.02,2.18-13.65,8.67-15.5,13.04-1.74,4.1-6.79,10.18-6.48,14.06.84,10.44,2.36,21.02,8.15,30.39,1.21,1.99,2.59,3.9,3.73,5.94,5.79,10.33,26.84,28.28,27.97,31.69,4.36-3.49,19.3,13.55,23.82,17.21.13.11-.57,1.13-.73,1.46,2.95.74,10.44,7.91,13.46,13.96.2.42,3.15,9.02-6.1,18.82-2,2.12-13.78,11.63-9.19,13.08.2.05-5.1,9.2,2.55,15.5M44.28,331.35c-5.38-7.92-12.44-14.6-16.29-23.74-3.67-8.72-9.84-16.5-15.02-24.62-.96-1.49-2.53-2.65-3.8-3.96-.5.17-1.02.35-1.53.51,0,2.85-.02,5.71,0,8.56.03,7.89,5.07,14.44,6.37,22.29,1.15,6.97.84,17.15,11.17,20.8.76.28.93,1.87,1.55,2.74,1.17,1.64,2.35,3.29,3.73,4.78,1.68,1.82,3.47,3.54,5.33,5.21,1.76,1.57,3.58,4.15,5.51,4.27,6.28.4,10.57,4.16,15.51,6.88.57.31,1.38.26,3.22.56-1.15-2.93-1.57-5.21-2.81-6.95-4.19-5.87-8.92-11.39-12.95-17.33M109.94,115.25c3.62-5.16,9.64-5.65,15.05-7.32.76-.24,1.88-.44,2.12-.95,1.95-4.25,3.94-8.52,5.36-12.95.21-.68-2.8-3.32-3.57-3.06-3.48,1.18-7.63,2.34-9.81,4.87-4.88,5.65-8.71,12.1-13.84,19.47,2.39,0,4.32.46,4.69-.06M274.31,406.08c-.65-.15-1.3-.29-1.96-.44v-14.13c-.22-.26-.46-.49-.73-.72-4.39,1-9.06,1.43-13.06,3.21-2.14.95-4.98,5.22-4.34,6.28,3.43,5.72.65,9.51-3.56,12.98q6.26,5.49,29.52-7.68c-.81-1.31-1.62-2.62-2.42-3.91-1.35,1.72-2.4,3.06-3.46,4.4M98.45,289.13c3.08,3.72,3.17,7.97,3.94,12.24,1.08,5.97,3.27,6.84,9.72,7.26,4.49.29,9.11,1.66,13.24,3.43,3.52,1.51,6.42,4.31,9.6,6.53.42-.29.85-.58,1.27-.87-1.99-10.4-3.67-20.86-6.06-31.19-1.36-5.8-4.07-11.32-5.76-17.07-2.07-7.12-3.68-14.36-5.55-21.52-1.38-5.28-2.85-10.53-4.31-15.79-.14-.49-.58-.9-.79-1.38-1.84-4.18-4.01-8.26-5.42-12.56-5.17-15.8-8.95-14.96-22.25-13.56-8.63.9-14.03,9.69-11.66,17.87,1.6,5.51,3.3,10.99,4.97,16.47.36,1.19.7,2.39,1.14,3.56,3.39,9.04,6.6,18.16,10.34,27.09.98,2.35,3.56,4.13,5.96,6.8-3.11,2.68,1.23,4.6,2.55,6.09-.48,2.91-1.79,5.56-.93,6.6"/>
</svg>