<?xml version="1.0" encoding="UTF-8"?>
<svg id="Layer_1" data-name="Layer 1" xmlns="http://www.w3.org/2000/svg" viewBox="0 0 258.1 75.88">
  <defs>
    <style>
      .cls-1 {
        fill: #afa6d1;
      }
    </style>
  </defs>
  <path class="cls-1" d="M249.68,68.8c-1.05,1.16-2.99,1.08-4.31.24-1.32-.84-2.17-2.23-2.97-3.57.89,1.63,1.81,3.33,1.95,5.19.14,1.86-.71,3.93-2.44,4.61-3.09-3.46-5.57-7.45-7.3-11.76-.16,1.67-.34,3.4-1.2,4.84-.86,1.44-2.62,2.49-4.21,1.99-1.6-.5-2.32-2.97-.95-3.94-.03,1.95-.33,3.9-.9,5.77-.33,1.07-.77,2.16-1.62,2.88-1.65,1.41-4.31.91-5.96-.51-1.64-1.42-2.52-3.51-3.33-5.52-1.07,1.22-2.23,2.5-3.79,2.95-1.56.46-3.59-.33-3.85-1.93-.69,2.57-3.48,4.4-6.11,4-2.63-.4-4.75-2.98-4.64-5.64-1.88,1.66-4.29,2.98-6.79,2.71-2.49-.27-4.82-2.66-4.28-5.11-3.03,3.73-6.75,7.29-11.45,8.31-4.7,1.02-10.42-1.52-11.34-6.24-1.69,1.02-3.53,2.08-5.5,1.95s-3.94-2.04-3.33-3.92c-2.42,2.79-7.76,1.82-9.06-1.64-1.31,2.76-4.52,4.49-7.55,4.06-3.03-.43-5.63-2.97-6.13-5.98-.77,2.13-3.39,3.54-5.46,2.61-2.07-.93-2.57-4.3-.65-5.51-1.88,2.8-6.38,2.24-8.94.05-3.07-2.64-4.38-6.88-4.35-10.93.03-4.05,1.25-7.99,2.51-11.83.72-2.19,1.47-4.41,2.75-6.34,1.05-1.58,2.44-2.93,4.05-3.92,2.27-1.41,5.07-2.1,7.65-1.44,2.59.66,4.84,2.85,5.14,5.5-.04-2.23,3.19-3.22,5.07-2.02,1.88,1.2,2.63,3.53,3.25,5.67,1.73-4.29,8.16-5.69,11.52-2.51,1-2.28,4.22-2.96,6.41-1.78,2.19,1.18,3.4,3.7,3.7,6.17,1.71-3.11,6.35-2.71,9.58-1.24,3.43,1.55,6.53,3.81,9.06,6.59-.69-2.63,2.95-4.68,5.48-3.68,2.53,1,3.94,3.64,5.15,6.08,1.82-2.59,6.28-2.63,8.14-.07,4.38-4.35,12.91-2.99,15.7,2.52,2.91-1.93,7.44-.55,8.78,2.68,1.45-2.55,5.5-3.06,7.53-.94.2-2.59,3.82-3.79,6.04-2.44,2.3,1.39,2.93,4.16,3.19,6.62.94-.69,3.65-3.3,4.85-3.21,1.48.11,2.04,1.69,3.02,2.83,1.72,2.01,4.11,3.88,5.46,6.17,3.3,5.59-3.79,7.97-8.66,7.18,1.38.44,2.21,2.22,1.09,3.46"/>
  <path class="cls-1" d="M2.67,0c3.4,1.9,6.88,3.77,10.46,5.59,57.76,29.48,112.75,35.18,142.19,36.31.19,1.54.38,3.09.57,4.63-40.74-.45-73.47-8.2-95.59-15.21C36.5,23.77,16.9,14.52,0,4.96,1.5,3.77,2.41,1.94,2.67,0"/>
  <path class="cls-1" d="M70.36,45.49c.1.32.19.66.08.98-.16.46-.67.68-1.12.85-.54.2-1.08.4-1.62.6-.18.07-.37.13-.56.11-.24-.04-.44-.22-.61-.4-.91-.99-1.59-2.18-2-3.47-.2.62-.42,1.27-.86,1.75-.45.48-1.2.74-1.78.42-.44-.24-.66-.73-.83-1.2-.29-.81-.42-1.89.3-2.37-.92.09-1.95.15-2.66-.44-.67-.55-.83-1.58-.48-2.38.35-.79,1.13-1.35,1.98-1.55-1.92-.51-3.51-2.08-4.07-3.98-.12-.42-.19-.88-.03-1.28.11-.29.33-.53.58-.71.8-.62,1.92-.8,2.88-.46-1.45-1.25-2.12-3.34-1.66-5.19.06-.26.15-.52.32-.72.33-.39.88-.47,1.38-.54.79-.1,1.72-.15,2.26.44-.8-.84-1.35-1.9-1.82-2.96-.57-1.3-1.04-2.86-.33-4.09.63-1.09,2.04-1.54,3.28-1.32,1.24.23,2.3,1.01,3.17,1.92-1.08-2.04-.18-4.89,1.89-5.92,2.06-1.04,4.89-.07,5.88,2.02.47.98.46,2.33-.41,2.99.88-.8,2.27-.86,3.36-.37,1.09.48,1.92,1.42,2.56,2.42.64,1,1.14,2.17.99,3.35-.25,1.88-2.08,3.14-3.86,3.8-1.34.5-2.91.78-4.17.09.91.04,1.72.64,2.23,1.39.51.75.77,1.64,1,2.52.1.39.2.8.12,1.2-.07.35-.27.66-.5.93-1.01,1.2-2.71,1.78-4.25,1.45.96.43,1.88.93,2.76,1.5.31.2.63.42.82.74.15.26.21.56.25.85.19,1.39-.04,3.03-1.23,3.77-1.3.81-3.01.1-4.24-.82.82.62,1.38.76.59,1.77-.29.36-.38.04-.41.54-.02.4.67,1.37.81,1.8"/>
  <path class="cls-1" d="M105,51.54c.11.64.2,1.29.07,1.93-.13.63-.52,1.25-1.13,1.48-.76.29-1.6-.1-2.32-.48-.63-.33-1.31-.71-1.54-1.38,1.7,1.58,1.97,4.46.6,6.33-.45.61-1.11,1.14-1.88,1.18-.76.04-1.57-.59-1.51-1.35.23.72-.32,1.52-1.05,1.73-.72.21-1.51-.06-2.1-.53-.59-.47-1-1.12-1.4-1.75-.56-.9-1.08-2.16-.35-2.93-.85.71-2.03,1.37-3.01.84-.72-.39-1.02-1.32-.89-2.13.13-.81.61-1.52,1.11-2.17-1.08-.27-2.33-.7-2.66-1.76-.36-1.16.62-2.29,1.57-3.04-1.35-.8-2.48-1.98-3.21-3.37-.22-.42-.41-.88-.38-1.35.07-1.29,1.57-1.91,2.82-2.25-1.25-.33-2.02-1.56-2.49-2.76-.38-.96-.62-2.11-.06-2.97.57-.88,1.72-1.11,2.76-1.27-1.27-.38-2.3-1.45-2.63-2.74-.06-.24-.1-.5-.03-.74.08-.27.29-.48.49-.67,1.07-.99,2.53-1.87,3.91-1.41-.54-.79-.98-1.67-1.3-2.58-.08-.23-.15-.47-.11-.71.05-.28.26-.5.46-.71.96-.95,2.06-1.83,3.39-2.08,1.32-.25,2.88.32,3.37,1.57.13-.73.87-1.23,1.61-1.28.74-.06,1.46.23,2.12.57.92.47,1.81,1.09,2.27,2.01.45.92.3,2.21-.57,2.76.11-.41.59-.63,1.01-.59.42.04.8.28,1.14.53.66.47,1.28.99,1.86,1.55.53.52,1.04,1.09,1.28,1.8.37,1.08,0,2.34-.8,3.15-.8.81-1.99,1.19-3.13,1.11,1.13-.32,2.35.41,2.96,1.41.62,1,.77,2.21.91,3.37.05.44.1.9-.09,1.3-.19.39-.57.64-.96.84-1.49.75-3.29.87-4.86.33,1.38.27,2.68.92,3.73,1.85-.7.64-1.5.8-2.36,1.03,2.15,1.5,2.95,3.81,3.37,6.32"/>
</svg>