<?xml version="1.0" encoding="UTF-8"?>
<svg id="Layer_1" data-name="Layer 1" xmlns="http://www.w3.org/2000/svg" viewBox="0 0 77.08 80.61">
  <defs>
    <style>
      .cls-1 {
        fill: #c78887;
      }
    </style>
  </defs>
  <path class="cls-1" d="M39.07.87s4.94-.91,11.8,4.95c.48.41.58.79.6.92.07.37-.07.75-.21,1.1-1.08,2.71-2.71,5.57-5.5,6.42-1.26.38-2.62.3-3.93.15-1.4-.15-2.8-.36-4.19-.63-1.02-.2-2.04-.43-2.95-.93-1.96-1.1-3.04-3.37-3.23-5.61-.07-.83-.02-1.7.4-2.42.51-.88,1.31-1.28,1.96-1.6,3.04-1.48,4.56-2.21,5.25-2.34"/>
  <path class="cls-1" d="M41.42,27.78c.53,1.67,2.02,2.83,3.5,3.78,2.18,1.4,4.58,2.6,7.17,2.79.93.07,1.87,0,2.8-.07.5-.04,1.01-.08,1.46-.3.4-.2.71-.53,1.01-.86,1.35-1.51,2.48-3.26,3.03-5.21.55-1.95.47-4.12-.47-5.91-1.06-2.02-3.06-3.35-5.07-4.42-2.95-1.57-8.31-3.31-10.58.35-.76,1.22-.99,2.79-1.62,4.09-.87,1.8-1.87,3.71-1.22,5.76"/>
  <path class="cls-1" d="M39.42,18.85c2.01,4.23,7.63,5.05,11.98,5.52,1.42.15,2.9.16,4.23-.36,2.06-.8,3.53-2.86,3.79-5.05.26-2.2-.64-4.46-2.21-6.01-1.59-1.57-3.73-2.4-5.73-3.39-.9-.45-1.81-.95-2.81-1-.7-.04-1.4.15-2.08.33-1.17.32-1.9.69-2.67,1.04-2.9,1.33-3.22.96-3.93,1.55-1.65,1.39-1.73,4.92-.57,7.37"/>
  <path class="cls-1" d="M38.76,31.19c-.64,1.19-1.27,2.42-1.44,3.76-.27,2.1.66,4.23,2.08,5.81,1.41,1.58,3.27,2.69,5.15,3.67,1.56.81,3.17,1.56,4.88,1.96,1.01.23,2.08.34,3.06,0,.82-.29,1.51-.88,2.07-1.55,1.48-1.74,2.21-4.07,2.14-6.35-.04-1.33-.36-2.71-1.21-3.74-.47-.57-1.07-1-1.67-1.43-1.45-1.03-2.92-2.02-4.41-2.97-1.16-.74-2.61-2.01-4.05-2.11-1.01-.07-2.06.48-3.05.62-1.79.25-2.66.66-3.55,2.33"/>
  <path class="cls-1" d="M30.02,49.63c.29,1.58,1.19,2.99,2.24,4.21,2.83,3.27,6.89,5.44,11.18,5.98,1.72.21,3.61.13,5-.92,1.9-1.45,2.2-4.15,2.22-6.53.01-1.16,0-2.34-.29-3.47-.47-1.88-1.65-3.54-3.09-4.84-1.44-1.3-3.13-2.3-4.84-3.22-2.32-1.26-6.33-4.24-8.76-1.73-1.26,1.3-1.97,3.37-2.67,5.01-.74,1.74-1.34,3.62-1,5.53"/>
  <path class="cls-1" d="M26.01,44.02c-2.68.39-4.42,2.79-5.06,4.52-.53,1.44-.44,2.82-.41,3.56.05,1.16.37,2.3.76,3.39.9,2.47,2.22,4.78,3.89,6.81.65.79,1.39,1.56,2.36,1.89.8.27,1.66.22,2.5.16.94-.07,1.91-.14,2.73-.6.99-.54,1.62-1.55,2.07-2.58,1.21-2.74,1.43-5.9.61-8.78-.59-2.08-1.73-4-3.25-5.54-1.24-1.26-3.41-3.23-6.2-2.83"/>
  <path class="cls-1" d="M56.54,14.72c.26.22.98.81,1.32.89,3.55.84,6.73,3.13,8.66,6.23.2.32.39.66.37,1.03-.01.38-.24.71-.46,1.02-1.68,2.38-3.93,4.79-6.84,4.96-1.32.08-2.62-.32-3.86-.77-1.33-.47-2.64-1-3.93-1.58-.94-.43-1.89-.89-2.65-1.59-1.65-1.53-2.17-3.99-1.84-6.21.12-.82.37-1.66.95-2.27.59-.62,1.44-.91,2.27-1.1,1.81-.42,3.7-.49,5.54-.21l.46-.4Z"/>
  <path class="cls-1" d="M53.09,38.97c.25,1.73,1.54,3.12,2.85,4.29,1.93,1.73,4.11,3.3,6.63,3.9.91.21,1.84.3,2.77.38.5.05,1.01.09,1.49-.06.42-.13.79-.4,1.13-.68,1.57-1.28,2.97-2.82,3.82-4.66.85-1.84,1.12-3.99.48-5.91-.72-2.16-2.48-3.8-4.3-5.18-2.66-2.02-7.67-4.59-10.5-1.35-.95,1.09-1.42,2.6-2.25,3.78-1.15,1.64-2.44,3.37-2.12,5.49"/>
  <path class="cls-1" d="M55.9,22.92c-1.26.81-2.43,1.77-3.46,2.86-.34.36-.67.74-.82,1.2-.31.99.29,2.03.92,2.85,2.73,3.55,6.63,6.18,10.94,7.37,1.38.38,2.83.62,4.23.32,2.16-.46,3.94-2.26,4.55-4.38.6-2.13.09-4.5-1.22-6.29-1.32-1.8-3.3-2.96-5.11-4.27-.82-.59-1.64-1.22-2.62-1.44-.69-.15-1.4-.08-2.11,0-.95.1-1.93.21-2.8.6-.53.24-1.01.58-1.48.92-.87.62-1.74,1.24-2.6,1.86"/>
  <path class="cls-1" d="M49.91,41.91c-.82,1.07-1.64,2.18-2.02,3.48-.6,2.03-.02,4.28,1.12,6.07,1.14,1.79,2.8,3.18,4.5,4.45,1.41,1.05,2.88,2.05,4.5,2.72.96.39,2,.67,3.02.48.86-.16,1.63-.63,2.29-1.2,1.73-1.49,2.83-3.66,3.13-5.92.17-1.32.07-2.73-.6-3.88-.37-.63-.89-1.16-1.42-1.68-1.26-1.24-2.56-2.46-3.88-3.64-1.03-.92-2.26-2.41-3.66-2.73-.98-.23-2.11.14-3.11.12-1.81-.04-2.73.23-3.88,1.73"/>
  <path class="cls-1" d="M38.34,58.72c.03,1.61.7,3.15,1.54,4.52,2.27,3.68,5.93,6.47,10.08,7.69,1.67.49,3.55.71,5.08-.11,2.11-1.12,2.83-3.74,3.24-6.1.2-1.15.37-2.31.27-3.47-.16-1.94-1.06-3.75-2.27-5.27-1.21-1.52-2.72-2.77-4.26-3.95-2.09-1.61-5.57-5.2-8.37-3.11-1.45,1.08-2.48,3.01-3.44,4.52-1.01,1.6-1.9,3.36-1.87,5.3"/>
  <path class="cls-1" d="M35.28,52.54c-.46-.22-.92-.45-1.43-.52-1.07-.15-2.14.46-2.83,1.29-.69.83-1.08,1.87-1.46,2.89-.42,1.12-.83,2.26-.98,3.45-.14,1.15,0,2.33.21,3.47.49,2.58,1.42,5.07,2.75,7.34.52.88,1.12,1.76,2.02,2.24.74.4,1.61.48,2.45.56.93.08,1.9.16,2.79-.15,1.06-.38,1.85-1.28,2.46-2.22,1.63-2.51,2.36-5.6,2.01-8.57-.25-2.15-1.07-4.23-2.32-5.99-1.43-2.02-3.51-2.72-5.67-3.78"/>
  <path class="cls-1" d="M59.77,50.16c.23,1.54,1.37,2.76,2.52,3.8,1.71,1.53,3.64,2.93,5.88,3.46.8.19,1.63.27,2.46.34.44.04.9.08,1.32-.05.38-.12.7-.36,1-.61,1.39-1.13,2.63-2.5,3.39-4.13s1-3.54.43-5.24c-.64-1.91-2.2-3.37-3.81-4.59-2.36-1.79-6.8-4.07-9.31-1.19-.84.96-1.26,2.3-2,3.35-1.02,1.45-2.16,2.99-1.88,4.87"/>
  <path class="cls-1" d="M62.26,35.93c-1.12.72-2.15,1.57-3.07,2.54-.3.31-.59.65-.72,1.07-.28.88.25,1.8.82,2.53,2.42,3.15,5.88,5.48,9.7,6.53,1.22.34,2.51.55,3.75.28,1.92-.41,3.49-2,4.03-3.88.54-1.89.08-3.99-1.08-5.58-1.17-1.6-2.93-2.63-4.53-3.78-.72-.52-1.45-1.08-2.32-1.27-.61-.13-1.25-.07-1.87,0-.85.09-1.71.18-2.48.53-.47.21-.89.51-1.31.82-.77.55-1.54,1.1-2.31,1.65"/>
  <path class="cls-1" d="M56.95,52.76c-.73.95-1.45,1.93-1.79,3.08-.53,1.8-.02,3.79,1,5.38,1.01,1.58,2.48,2.82,3.99,3.95,1.25.93,2.55,1.82,3.99,2.41.85.35,1.77.59,2.67.43.76-.14,1.45-.56,2.03-1.06,1.54-1.32,2.51-3.24,2.78-5.25.15-1.17.06-2.42-.53-3.44-.33-.56-.79-1.03-1.26-1.49-1.12-1.1-2.27-2.18-3.44-3.22-.91-.81-2-2.13-3.24-2.42-.87-.2-1.87.13-2.76.11-1.6-.03-2.42.2-3.44,1.54"/>
  <path class="cls-1" d="M46.32,61.87c.02,1.43.62,2.79,1.37,4,2.01,3.26,5.26,5.74,8.94,6.81,1.48.43,3.14.63,4.51-.1,1.87-.99,2.51-3.32,2.87-5.4.18-1.02.33-2.05.24-3.08-.14-1.72-.94-3.33-2.02-4.67-1.07-1.35-2.41-2.45-3.78-3.5-1.85-1.43-4.94-4.61-7.42-2.76-1.29.96-2.2,2.67-3.05,4-.9,1.41-1.68,2.98-1.65,4.7"/>
  <path class="cls-1" d="M43.98,62.18c-.4-.2-.82-.4-1.27-.46-.95-.13-1.9.4-2.51,1.14-.61.74-.96,1.66-1.29,2.56-.37.99-.74,2-.86,3.06-.12,1.03,0,2.06.19,3.08.43,2.29,1.26,4.5,2.44,6.51.46.78,1,1.56,1.79,1.99.66.35,1.43.42,2.17.49.83.07,1.69.15,2.47-.13.94-.33,1.64-1.13,2.18-1.97,1.45-2.22,2.09-4.96,1.78-7.6-.22-1.9-.95-3.75-2.05-5.31-1.27-1.79-3.11-2.41-5.03-3.35"/>
  <path class="cls-1" d="M14.91,47.09c-.42-.13-.86-.26-1.3-.25-.95.02-1.78.69-2.26,1.51-.48.82-.67,1.76-.85,2.69-.2,1.03-.4,2.06-.36,3.11.04,1.02.32,2.01.67,2.96.78,2.15,1.94,4.17,3.4,5.94.57.69,1.22,1.36,2.06,1.65.7.24,1.45.19,2.19.14.82-.06,1.66-.12,2.38-.52.86-.47,1.41-1.36,1.81-2.26,1.06-2.39,1.25-5.15.53-7.67-.52-1.82-1.51-3.5-2.83-4.84-1.52-1.54-3.4-1.85-5.42-2.47"/>
  <path class="cls-1" d="M21.93,56.05c-.43-.13-.86-.26-1.3-.25-.95.02-1.78.69-2.26,1.51-.48.82-.67,1.77-.85,2.69-.2,1.03-.4,2.06-.36,3.11.04,1.02.32,2.01.67,2.96.78,2.15,1.94,4.17,3.4,5.94.57.69,1.22,1.36,2.06,1.65.7.24,1.45.19,2.19.14.82-.06,1.66-.12,2.38-.52.86-.48,1.41-1.36,1.81-2.26,1.06-2.39,1.25-5.15.53-7.67-.52-1.82-1.51-3.5-2.83-4.84-1.52-1.54-3.4-1.85-5.42-2.47"/>
  <path class="cls-1" d="M20.42,6.53c-.8,1.79-.83,3.99.21,5.65.65,1.03,1.65,1.78,2.66,2.47,2.26,1.56,4.77,2.96,7.51,3.11.65.04,1.33,0,1.91-.3.4-.2.73-.51,1.02-.84,1.54-1.71,2.33-3.98,2.79-6.23.36-1.74.53-3.61-.22-5.22-.61-1.32-1.78-2.29-2.98-3.11-1.95-1.33-4.29-2.43-6.6-1.96-1.7.34-2.04,1.5-3.06,2.62-1.18,1.3-2.49,2.12-3.24,3.8"/>
  <path class="cls-1" d="M11.88,10.84c-.38.74-1.47,2.68-1.05,4.98.9,4.91,5.96,7.29,6.81,7.66,1.51.65,3.4,1.47,5.59.74,1.93-.64,3.63-2.34,4.09-4.5.63-2.95-1.34-5.26-2.05-6.05-.22-.24-.98-.84-2.52-2.03-3.16-2.44-4.23-3.06-5.56-3.46-.97-.29-1.67-.49-2.52-.25-1.5.42-2.25,1.88-2.78,2.91"/>
  <path class="cls-1" d="M1.8,25.53c-.12.44-.22.89-.18,1.34.04.38.17.75.35,1.09.73,1.44,2.11,2.45,3.57,3.12,1.46.67,3.04,1.06,4.57,1.57,1.87.63,3.72,1.46,5.69,1.51,1.97.05,4.15-.97,4.68-2.86.22-.8.13-1.65-.04-2.45-.73-3.52-3.04-6.62-6.06-8.54-1.38-.88-3.08-1.65-4.71-1.94-1.55-.27-3.01.73-4.18,1.67-1.74,1.4-3.08,3.33-3.69,5.48"/>
  <path class="cls-1" d="M.07,37.45c-.08.87-.13,1.76.06,2.61.44,1.98,2.3,3.55,4.32,3.66,1.54.08,3-.59,4.4-1.25,1.44-.68,2.88-1.36,4.3-2.08,1.07-.55,2.15-1.14,2.98-2.01.93-1,1.48-2.34,1.51-3.71.02-.84-.16-1.7-.57-2.43-1.25-2.23-4.72-2.2-6.94-2.21-1.41,0-3.85.01-6.26,1.49-.51.32-1.4.87-2.21,1.92-1.25,1.61-1.52,3.31-1.58,4.03"/>
  <path class="cls-1" d="M5.06,50.33c.27.6.91,2.02,2.22,3.2.22.2,3.45,3.26,6.55,2.05,1.46-.57,2.55-1.79,3.67-2.88,1.29-1.26,2.7-2.4,3.79-3.83,1.09-1.43,1.85-3.23,1.59-5.01-.33-2.23-2.23-3.97-4.35-4.73-2.12-.76-4.43-.71-6.68-.56-.65.04-1.31.1-1.92.32-.98.36-1.65.98-2.26,1.67-1.56,1.74-3.67,4.11-3.39,7.16.1,1.1.49,1.97.77,2.61"/>
</svg>