<?xml version="1.0" encoding="UTF-8"?>
<svg id="Layer_1" data-name="Layer 1" xmlns="http://www.w3.org/2000/svg" viewBox="0 0 191.08 154.84">
  <defs>
    <style>
      .cls-1 {
        fill: #c78887;
      }
    </style>
  </defs>
  <path class="cls-1" d="M153.07,75.1s4.94-.91,11.8,4.95c.48.41.58.79.6.92.07.37-.07.75-.21,1.1-1.08,2.71-2.71,5.57-5.5,6.42-1.26.38-2.62.3-3.93.15-1.4-.15-2.8-.36-4.19-.63-1.02-.2-2.04-.43-2.95-.93-1.96-1.1-3.04-3.37-3.23-5.61-.07-.83-.02-1.7.4-2.42.51-.88,1.31-1.28,1.96-1.6,3.04-1.48,4.56-2.21,5.25-2.34"/>
  <path class="cls-1" d="M155.42,102.01c.53,1.67,2.02,2.83,3.5,3.78,2.18,1.4,4.58,2.6,7.17,2.79.93.07,1.87,0,2.8-.07.5-.04,1.01-.08,1.46-.3.4-.2.71-.53,1.01-.86,1.35-1.51,2.48-3.26,3.03-5.21.55-1.95.47-4.12-.47-5.91-1.06-2.02-3.06-3.35-5.07-4.42-2.95-1.57-8.31-3.31-10.58.35-.76,1.22-.99,2.79-1.62,4.09-.87,1.8-1.87,3.71-1.22,5.76"/>
  <path class="cls-1" d="M153.43,93.08c2.01,4.23,7.63,5.05,11.98,5.52,1.42.15,2.9.16,4.23-.36,2.06-.8,3.53-2.86,3.79-5.05.26-2.2-.64-4.46-2.21-6.01-1.59-1.57-3.73-2.4-5.73-3.39-.9-.45-1.81-.95-2.81-1-.7-.04-1.4.15-2.08.33-1.17.32-1.9.69-2.67,1.04-2.9,1.33-3.22.96-3.93,1.55-1.65,1.39-1.73,4.92-.57,7.37"/>
  <path class="cls-1" d="M152.76,105.42c-.64,1.19-1.27,2.42-1.44,3.76-.27,2.1.66,4.23,2.08,5.81,1.41,1.58,3.27,2.69,5.15,3.67,1.56.81,3.17,1.56,4.88,1.96,1.01.23,2.08.34,3.06,0,.82-.29,1.51-.88,2.07-1.55,1.48-1.74,2.21-4.07,2.14-6.35-.04-1.33-.36-2.71-1.21-3.74-.47-.57-1.07-1-1.67-1.43-1.45-1.03-2.92-2.02-4.41-2.97-1.16-.74-2.61-2.01-4.05-2.11-1.01-.07-2.06.48-3.05.62-1.79.25-2.66.66-3.55,2.33"/>
  <path class="cls-1" d="M144.02,123.86c.29,1.58,1.19,2.99,2.24,4.21,2.83,3.27,6.89,5.44,11.18,5.98,1.72.21,3.61.13,5-.92,1.9-1.45,2.2-4.15,2.22-6.53.01-1.16,0-2.34-.29-3.47-.47-1.88-1.65-3.54-3.09-4.84-1.44-1.3-3.13-2.3-4.84-3.22-2.32-1.26-6.33-4.24-8.76-1.73-1.26,1.3-1.97,3.37-2.67,5.01-.74,1.74-1.34,3.62-1,5.53"/>
  <path class="cls-1" d="M140.01,118.24c-2.68.39-4.42,2.79-5.06,4.52-.53,1.44-.44,2.82-.41,3.56.05,1.16.37,2.3.76,3.39.9,2.47,2.22,4.78,3.89,6.81.65.79,1.39,1.56,2.36,1.89.8.27,1.66.22,2.5.16.94-.07,1.91-.14,2.73-.6.99-.54,1.62-1.55,2.07-2.58,1.21-2.74,1.43-5.9.61-8.78-.59-2.08-1.73-4-3.25-5.54-1.24-1.26-3.41-3.23-6.2-2.83"/>
  <path class="cls-1" d="M170.55,88.94c.26.22.98.81,1.32.89,3.55.84,6.73,3.13,8.66,6.23.2.32.39.66.37,1.03-.01.38-.24.71-.46,1.02-1.68,2.38-3.93,4.79-6.84,4.96-1.32.08-2.62-.32-3.86-.77-1.33-.47-2.64-1-3.93-1.58-.94-.43-1.89-.89-2.65-1.59-1.65-1.53-2.17-3.99-1.84-6.21.12-.82.37-1.66.95-2.27.59-.62,1.44-.91,2.27-1.1,1.81-.42,3.7-.49,5.54-.21l.46-.4Z"/>
  <path class="cls-1" d="M167.09,113.2c.25,1.73,1.54,3.12,2.85,4.29,1.93,1.73,4.11,3.3,6.63,3.9.91.21,1.84.3,2.77.38.5.05,1.01.09,1.49-.06.42-.13.79-.4,1.13-.68,1.57-1.28,2.97-2.82,3.82-4.66.85-1.84,1.12-3.99.48-5.91-.72-2.16-2.48-3.8-4.3-5.18-2.66-2.02-7.67-4.59-10.5-1.35-.95,1.09-1.42,2.6-2.25,3.78-1.15,1.64-2.44,3.37-2.12,5.49"/>
  <path class="cls-1" d="M169.9,97.15c-1.26.81-2.43,1.77-3.46,2.86-.34.36-.67.74-.82,1.2-.31.99.29,2.03.92,2.85,2.73,3.55,6.63,6.18,10.94,7.37,1.38.38,2.83.62,4.23.32,2.16-.46,3.94-2.26,4.55-4.38.6-2.13.09-4.5-1.22-6.29-1.32-1.8-3.3-2.96-5.11-4.27-.82-.59-1.64-1.22-2.62-1.44-.69-.15-1.4-.08-2.11,0-.95.1-1.93.21-2.8.6-.53.24-1.01.58-1.48.92-.87.62-1.74,1.24-2.6,1.86"/>
  <path class="cls-1" d="M163.91,116.14c-.82,1.07-1.64,2.18-2.02,3.48-.6,2.03-.02,4.28,1.12,6.07,1.14,1.79,2.8,3.18,4.5,4.45,1.41,1.05,2.88,2.05,4.5,2.72.96.39,2,.67,3.02.48.86-.16,1.63-.63,2.29-1.2,1.73-1.49,2.83-3.66,3.13-5.92.17-1.32.07-2.73-.6-3.88-.37-.63-.89-1.16-1.42-1.68-1.26-1.24-2.56-2.46-3.88-3.64-1.03-.92-2.26-2.41-3.66-2.73-.98-.23-2.11.14-3.11.12-1.81-.04-2.73.23-3.88,1.73"/>
  <path class="cls-1" d="M152.34,132.95c.03,1.61.7,3.15,1.54,4.52,2.27,3.68,5.93,6.47,10.08,7.69,1.67.49,3.55.71,5.08-.11,2.11-1.12,2.83-3.74,3.24-6.1.2-1.15.37-2.31.27-3.47-.16-1.94-1.06-3.75-2.27-5.27-1.21-1.52-2.72-2.77-4.26-3.95-2.09-1.61-5.57-5.2-8.37-3.11-1.45,1.08-2.48,3.01-3.44,4.52-1.01,1.6-1.9,3.36-1.87,5.3"/>
  <path class="cls-1" d="M149.28,126.76c-.46-.22-.92-.45-1.43-.52-1.07-.15-2.14.46-2.83,1.29-.69.83-1.08,1.87-1.46,2.89-.42,1.12-.83,2.26-.98,3.45-.14,1.15,0,2.33.21,3.47.49,2.58,1.42,5.07,2.75,7.34.52.88,1.12,1.76,2.02,2.24.74.4,1.61.48,2.45.56.93.08,1.9.16,2.79-.15,1.06-.38,1.85-1.28,2.46-2.22,1.63-2.51,2.36-5.6,2.01-8.57-.25-2.15-1.07-4.23-2.32-5.99-1.43-2.02-3.51-2.72-5.67-3.78"/>
  <path class="cls-1" d="M173.77,124.39c.23,1.54,1.37,2.76,2.52,3.8,1.71,1.53,3.64,2.93,5.88,3.46.8.19,1.63.27,2.46.34.44.04.9.08,1.32-.05.38-.12.7-.36,1-.61,1.39-1.13,2.63-2.5,3.39-4.13s1-3.54.43-5.24c-.64-1.91-2.2-3.37-3.81-4.59-2.36-1.79-6.8-4.07-9.31-1.19-.84.96-1.26,2.3-2,3.35-1.02,1.45-2.16,2.99-1.88,4.87"/>
  <path class="cls-1" d="M176.26,110.16c-1.12.72-2.15,1.57-3.07,2.54-.3.31-.59.65-.72,1.07-.28.88.25,1.8.82,2.53,2.42,3.15,5.88,5.48,9.7,6.53,1.22.34,2.51.55,3.75.28,1.92-.41,3.49-2,4.03-3.88.54-1.89.08-3.99-1.08-5.58-1.17-1.6-2.93-2.63-4.53-3.78-.72-.52-1.45-1.08-2.32-1.27-.61-.13-1.25-.07-1.87,0-.85.09-1.71.18-2.48.53-.47.21-.89.51-1.31.82-.77.55-1.54,1.1-2.31,1.65"/>
  <path class="cls-1" d="M170.95,126.99c-.73.95-1.45,1.93-1.79,3.08-.53,1.8-.02,3.79,1,5.38,1.01,1.58,2.48,2.82,3.99,3.95,1.25.93,2.55,1.82,3.99,2.41.85.35,1.77.59,2.67.43.76-.14,1.45-.56,2.03-1.06,1.54-1.32,2.51-3.24,2.78-5.25.15-1.17.06-2.42-.53-3.44-.33-.56-.79-1.03-1.26-1.49-1.12-1.1-2.27-2.18-3.44-3.22-.91-.81-2-2.13-3.24-2.42-.87-.2-1.87.13-2.76.11-1.6-.03-2.42.2-3.44,1.54"/>
  <path class="cls-1" d="M160.32,136.1c.02,1.43.62,2.79,1.37,4,2.01,3.26,5.26,5.74,8.94,6.81,1.48.43,3.14.63,4.51-.1,1.87-.99,2.51-3.32,2.87-5.4.18-1.02.33-2.05.24-3.08-.14-1.72-.94-3.33-2.02-4.67-1.07-1.35-2.41-2.45-3.78-3.5-1.85-1.43-4.94-4.61-7.42-2.76-1.29.96-2.2,2.67-3.05,4-.9,1.41-1.68,2.98-1.65,4.7"/>
  <path class="cls-1" d="M157.98,136.41c-.4-.2-.82-.4-1.27-.46-.95-.13-1.9.4-2.51,1.14-.61.74-.96,1.66-1.29,2.56-.37.99-.74,2-.86,3.06-.12,1.03,0,2.06.19,3.08.43,2.29,1.26,4.5,2.44,6.51.46.78,1,1.56,1.79,1.99.66.35,1.43.42,2.17.49.83.07,1.69.15,2.47-.13.94-.33,1.64-1.13,2.18-1.97,1.45-2.22,2.09-4.96,1.78-7.6-.22-1.9-.95-3.75-2.05-5.31-1.27-1.79-3.11-2.41-5.03-3.35"/>
  <path class="cls-1" d="M128.91,121.32c-.42-.13-.86-.26-1.3-.25-.95.02-1.78.69-2.26,1.51-.48.82-.67,1.76-.85,2.69-.2,1.03-.4,2.06-.36,3.11.04,1.02.32,2.01.67,2.96.78,2.15,1.94,4.17,3.4,5.94.57.69,1.22,1.36,2.06,1.65.7.24,1.45.19,2.19.14.82-.06,1.66-.12,2.38-.52.86-.47,1.41-1.36,1.81-2.26,1.06-2.39,1.25-5.15.53-7.67-.52-1.82-1.51-3.5-2.83-4.84-1.52-1.54-3.4-1.85-5.42-2.47"/>
  <path class="cls-1" d="M135.93,130.28c-.43-.13-.86-.26-1.3-.25-.95.02-1.78.69-2.26,1.51-.48.82-.67,1.77-.85,2.69-.2,1.03-.4,2.06-.36,3.11.04,1.02.32,2.01.67,2.96.78,2.15,1.94,4.17,3.4,5.94.57.69,1.22,1.36,2.06,1.65.7.24,1.45.19,2.19.14.82-.06,1.66-.12,2.38-.52.86-.48,1.41-1.36,1.81-2.26,1.06-2.39,1.25-5.15.53-7.67-.52-1.82-1.51-3.5-2.83-4.84-1.52-1.54-3.4-1.85-5.42-2.47"/>
  <path class="cls-1" d="M134.42,80.76c-.8,1.79-.83,3.99.21,5.65.65,1.03,1.65,1.78,2.66,2.47,2.26,1.56,4.77,2.96,7.51,3.11.65.04,1.33,0,1.91-.3.4-.2.73-.51,1.02-.84,1.54-1.71,2.33-3.98,2.79-6.23.36-1.74.53-3.61-.22-5.22-.61-1.32-1.78-2.29-2.98-3.11-1.95-1.33-4.29-2.43-6.6-1.96-1.7.34-2.04,1.5-3.06,2.62-1.18,1.3-2.49,2.12-3.24,3.8"/>
  <path class="cls-1" d="M125.88,85.07c-.38.74-1.47,2.68-1.05,4.98.9,4.91,5.96,7.29,6.81,7.66,1.51.65,3.4,1.47,5.59.74,1.93-.64,3.63-2.34,4.09-4.5.63-2.95-1.34-5.26-2.05-6.05-.22-.24-.98-.84-2.52-2.03-3.16-2.44-4.23-3.06-5.56-3.46-.97-.29-1.67-.49-2.52-.25-1.5.42-2.25,1.88-2.78,2.91"/>
  <path class="cls-1" d="M115.8,99.76c-.12.44-.22.89-.18,1.34.04.38.17.75.35,1.09.73,1.44,2.11,2.45,3.57,3.12,1.46.67,3.04,1.06,4.57,1.57,1.87.63,3.72,1.46,5.69,1.51,1.97.05,4.15-.97,4.68-2.86.22-.8.13-1.65-.04-2.45-.73-3.52-3.04-6.62-6.06-8.54-1.38-.88-3.08-1.65-4.71-1.94-1.55-.27-3.01.73-4.18,1.67-1.74,1.4-3.08,3.33-3.69,5.48"/>
  <path class="cls-1" d="M114.07,111.68c-.08.87-.13,1.76.06,2.61.44,1.98,2.3,3.55,4.32,3.66,1.54.08,3-.59,4.4-1.25,1.44-.68,2.88-1.36,4.3-2.08,1.07-.55,2.15-1.14,2.98-2.01.93-1,1.48-2.34,1.51-3.71.02-.84-.16-1.7-.57-2.43-1.25-2.23-4.72-2.2-6.94-2.21-1.41,0-3.85.01-6.26,1.49-.51.32-1.4.87-2.21,1.92-1.25,1.61-1.52,3.31-1.58,4.03"/>
  <path class="cls-1" d="M119.07,124.56c.27.6.91,2.02,2.22,3.2.22.2,3.45,3.26,6.55,2.05,1.46-.57,2.55-1.79,3.67-2.88,1.29-1.26,2.7-2.4,3.79-3.83,1.09-1.43,1.85-3.23,1.59-5.01-.33-2.23-2.23-3.97-4.35-4.73-2.12-.76-4.43-.71-6.68-.56-.65.04-1.31.1-1.92.32-.98.36-1.65.98-2.26,1.67-1.56,1.74-3.67,4.11-3.39,7.16.1,1.1.49,1.97.77,2.61"/>
  <path class="cls-1" d="M129.92,12.53s4.15,2.82,4.92,11.82c.05.62-.15.97-.22,1.08-.21.32-.57.49-.92.64-2.67,1.17-5.84,2.06-8.42.7-1.17-.62-2.07-1.63-2.9-2.66-.89-1.09-1.74-2.23-2.54-3.39-.59-.85-1.15-1.74-1.44-2.73-.62-2.16.21-4.54,1.65-6.26.53-.64,1.18-1.23,1.98-1.45.98-.27,1.83,0,2.52.24,3.2,1.09,4.8,1.63,5.38,2.02"/>
  <path class="cls-1" d="M112.68,33.32c-.8,1.56-.55,3.43-.17,5.14.57,2.53,1.43,5.07,3.14,7.02.61.7,1.33,1.31,2.04,1.92.38.33.77.66,1.25.81.42.14.88.13,1.32.1,2.02-.13,4.06-.57,5.82-1.58,1.76-1,3.23-2.6,3.82-4.54.66-2.18.18-4.53-.5-6.71-.99-3.19-3.59-8.19-7.77-7.19-1.4.34-2.66,1.29-4.02,1.77-1.88.67-3.94,1.33-4.92,3.24"/>
  <path class="cls-1" d="M117.54,25.56c-1.55,4.43,1.88,8.95,4.64,12.35.9,1.11,1.95,2.15,3.26,2.71,2.03.88,4.52.45,6.24-.93,1.73-1.38,2.68-3.62,2.65-5.83-.03-2.23-.97-4.33-1.69-6.44-.32-.95-.62-1.95-1.3-2.69-.48-.52-1.1-.88-1.71-1.22-1.05-.59-1.84-.85-2.63-1.14-3-1.1-2.96-1.58-3.88-1.66-2.15-.17-4.69,2.29-5.59,4.84"/>
  <path class="cls-1" d="M108.39,33.87c-1.29.4-2.6.83-3.66,1.66-1.67,1.31-2.5,3.47-2.6,5.59-.1,2.12.44,4.21,1.08,6.24.54,1.67,1.15,3.34,2.09,4.82.55.87,1.24,1.71,2.18,2.15.79.37,1.69.43,2.56.35,2.27-.21,4.43-1.34,5.99-3.01.91-.98,1.64-2.18,1.76-3.51.07-.73-.05-1.46-.18-2.19-.31-1.75-.66-3.48-1.05-5.21-.3-1.34-.45-3.27-1.4-4.35-.67-.75-1.8-1.11-2.6-1.71-1.45-1.08-2.36-1.4-4.17-.84"/>
  <path class="cls-1" d="M89.21,40.85c-.91,1.33-1.26,2.97-1.36,4.57-.29,4.31,1.08,8.71,3.75,12.11,1.07,1.37,2.48,2.63,4.2,2.86,2.37.31,4.48-1.41,6.17-3.09.83-.82,1.64-1.67,2.24-2.67.99-1.67,1.31-3.67,1.21-5.61-.11-1.94-.61-3.83-1.18-5.69-.77-2.53-1.52-7.46-5.01-7.39-1.81.04-3.77,1.01-5.42,1.68-1.75.71-3.5,1.64-4.59,3.23"/>
  <path class="cls-1" d="M90.31,34.04c-2.18-1.61-5.1-1.12-6.78-.34-1.39.65-2.3,1.7-2.79,2.24-.78.86-1.36,1.89-1.84,2.95-1.1,2.39-1.78,4.96-2.02,7.57-.09,1.02-.11,2.09.35,3,.38.75,1.03,1.32,1.67,1.87.71.61,1.45,1.24,2.36,1.49,1.08.3,2.24.03,3.29-.38,2.79-1.09,5.17-3.19,6.61-5.82,1.04-1.9,1.58-4.06,1.59-6.22,0-1.77-.15-4.7-2.43-6.37"/>
  <path class="cls-1" d="M132.62,34.66c.03.34.13,1.26.31,1.55,1.93,3.09,2.59,6.96,1.78,10.51-.08.36-.19.74-.46,1-.28.26-.67.34-1.04.41-2.87.51-6.16.65-8.35-1.28-.99-.87-1.64-2.07-2.21-3.26-.61-1.27-1.17-2.57-1.68-3.89-.37-.97-.72-1.96-.76-2.99-.1-2.24,1.26-4.36,3.06-5.71.67-.5,1.43-.92,2.27-.95.86-.03,1.66.37,2.39.82,1.58.98,2.98,2.25,4.09,3.74l.61.04Z"/>
  <path class="cls-1" d="M113.11,49.48c-1.04,1.41-1.09,3.3-.99,5.05.16,2.59.6,5.23,1.98,7.43.49.79,1.1,1.51,1.7,2.22.32.38.66.77,1.1,1,.39.2.85.26,1.29.31,2.02.2,4.1.08,5.99-.63,1.9-.71,3.61-2.05,4.5-3.87,1-2.04.9-4.45.58-6.7-.47-3.31-2.23-8.66-6.52-8.34-1.43.11-2.84.85-4.26,1.11-1.97.36-4.1.68-5.37,2.41"/>
  <path class="cls-1" d="M126.39,40.04c-1.47-.31-2.97-.44-4.47-.4-.49.01-.99.05-1.43.28-.92.49-1.22,1.64-1.35,2.68-.56,4.44.37,9.05,2.6,12.93.71,1.24,1.58,2.43,2.79,3.2,1.86,1.19,4.39,1.16,6.31.08,1.93-1.09,3.23-3.15,3.55-5.33.33-2.21-.26-4.43-.64-6.63-.17-.99-.3-2.02-.85-2.86-.39-.59-.95-1.04-1.5-1.48-.75-.6-1.51-1.21-2.42-1.54-.55-.2-1.12-.29-1.7-.39-1.05-.17-2.11-.34-3.16-.51"/>
  <path class="cls-1" d="M108.79,49.34c-1.34.19-2.7.4-3.88,1.05-1.86,1.02-3.02,3.03-3.46,5.1-.44,2.07-.24,4.23.07,6.33.26,1.74.6,3.48,1.29,5.1.4.95.95,1.88,1.81,2.47.72.49,1.6.7,2.47.76,2.28.16,4.59-.61,6.39-2.01,1.05-.82,1.97-1.89,2.3-3.18.18-.71.18-1.46.17-2.19-.02-1.77-.09-3.54-.2-5.31-.09-1.37.08-3.3-.68-4.51-.54-.85-1.6-1.38-2.3-2.1-1.26-1.3-2.1-1.75-3.98-1.49"/>
  <path class="cls-1" d="M88.74,53.16c-1.11,1.16-1.71,2.73-2.08,4.3-.97,4.21-.33,8.77,1.77,12.55.84,1.52,2.02,3,3.69,3.49,2.29.68,4.65-.67,6.59-2.06.95-.68,1.89-1.39,2.63-2.28,1.25-1.49,1.88-3.42,2.09-5.35.21-1.93,0-3.88-.25-5.81-.36-2.62-.31-7.61-3.77-8.1-1.79-.25-3.88.39-5.62.79-1.84.42-3.71,1.05-5.05,2.46"/>
  <path class="cls-1" d="M90.91,46.62c-.17-.48-.34-.97-.65-1.38-.66-.86-1.84-1.18-2.92-1.07s-2.08.57-3.07,1.03c-1.08.51-2.18,1.02-3.12,1.77-.91.73-1.64,1.65-2.29,2.62-1.46,2.18-2.55,4.61-3.2,7.15-.25.99-.44,2.04-.14,3.02.25.8.81,1.47,1.35,2.11.61.72,1.24,1.46,2.09,1.85,1.02.48,2.21.39,3.31.15,2.92-.63,5.61-2.32,7.45-4.68,1.33-1.71,2.21-3.76,2.56-5.89.4-2.44-.58-4.4-1.38-6.68"/>
  <path class="cls-1" d="M110,62.13c-.92,1.25-.97,2.93-.88,4.48.14,2.29.53,4.64,1.75,6.59.44.7.97,1.34,1.51,1.97.29.34.58.68.98.89.35.18.75.24,1.14.27,1.79.18,3.63.07,5.31-.55,1.68-.63,3.2-1.82,3.99-3.43.89-1.81.8-3.94.52-5.94-.42-2.93-1.98-7.68-5.78-7.39-1.27.1-2.51.75-3.77.98-1.74.32-3.63.6-4.76,2.14"/>
  <path class="cls-1" d="M121.78,53.76c-1.3-.28-2.64-.39-3.96-.35-.43.01-.88.05-1.27.25-.82.43-1.08,1.46-1.2,2.37-.49,3.94.33,8.03,2.31,11.46.63,1.1,1.4,2.16,2.47,2.84,1.65,1.05,3.89,1.03,5.6.07s2.86-2.79,3.15-4.73c.29-1.96-.24-3.92-.57-5.87-.15-.88-.27-1.79-.76-2.54-.34-.52-.84-.92-1.33-1.32-.66-.53-1.34-1.07-2.14-1.37-.48-.18-1-.26-1.51-.34-.93-.15-1.87-.3-2.8-.45"/>
  <path class="cls-1" d="M106.17,62.01c-1.18.16-2.39.35-3.44.93-1.65.91-2.68,2.69-3.07,4.52-.39,1.84-.22,3.75.06,5.61.23,1.54.54,3.08,1.15,4.52.36.84.85,1.67,1.6,2.19.64.44,1.42.62,2.19.67,2.02.14,4.07-.54,5.67-1.78.93-.73,1.75-1.68,2.04-2.82.16-.63.16-1.29.15-1.94-.02-1.57-.08-3.14-.18-4.71-.08-1.22.07-2.92-.61-4-.48-.75-1.42-1.22-2.04-1.86-1.12-1.15-1.87-1.55-3.53-1.32"/>
  <path class="cls-1" d="M92.2,61.01c-.98,1.03-1.52,2.42-1.84,3.81-.86,3.73-.29,7.78,1.57,11.13.75,1.35,1.79,2.66,3.27,3.1,2.03.6,4.12-.6,5.84-1.83.84-.6,1.67-1.23,2.34-2.02,1.11-1.32,1.67-3.03,1.85-4.74.18-1.71,0-3.44-.22-5.15-.32-2.32-.27-6.75-3.34-7.18-1.59-.22-3.44.35-4.98.71-1.63.38-3.29.93-4.48,2.18"/>
  <path class="cls-1" d="M90.32,59.59c-.15-.43-.3-.86-.58-1.22-.58-.76-1.63-1.05-2.59-.95-.96.1-1.85.51-2.72.91-.96.45-1.93.9-2.76,1.57-.81.64-1.46,1.46-2.03,2.32-1.3,1.93-2.26,4.09-2.84,6.34-.22.88-.39,1.81-.12,2.68.22.71.71,1.3,1.2,1.87.54.64,1.1,1.29,1.85,1.64.9.42,1.96.35,2.93.13,2.59-.56,4.97-2.06,6.6-4.15,1.18-1.51,1.96-3.33,2.27-5.22.35-2.16-.52-3.9-1.22-5.92"/>
  <path class="cls-1" d="M80.25,28.42c-.21-.39-.43-.79-.75-1.09-.69-.65-1.75-.76-2.67-.52-.91.24-1.72.78-2.5,1.32-.86.59-1.74,1.18-2.44,1.96-.68.75-1.18,1.65-1.61,2.58-.96,2.08-1.56,4.33-1.76,6.61-.08.89-.09,1.82.31,2.62.33.66.9,1.16,1.46,1.63.62.53,1.27,1.08,2.06,1.3.95.27,1.96.03,2.87-.33,2.43-.96,4.51-2.79,5.77-5.08.91-1.66,1.38-3.55,1.39-5.44,0-2.16-1.12-3.71-2.12-5.57"/>
  <path class="cls-1" d="M78.94,39.73c-.21-.39-.43-.79-.75-1.09-.69-.65-1.75-.76-2.67-.52-.91.24-1.72.78-2.5,1.32-.86.59-1.74,1.18-2.44,1.96-.68.75-1.18,1.65-1.61,2.58-.96,2.08-1.56,4.33-1.76,6.61-.08.89-.09,1.82.31,2.62.33.66.9,1.16,1.46,1.63.62.53,1.27,1.08,2.06,1.3.95.27,1.96.03,2.87-.33,2.43-.96,4.51-2.79,5.77-5.08.91-1.66,1.38-3.55,1.39-5.44,0-2.16-1.12-3.71-2.12-5.57"/>
  <path class="cls-1" d="M112.68,3.44c-1.83.71-3.4,2.25-3.82,4.17-.26,1.19-.08,2.43.15,3.63.51,2.7,1.32,5.46,3.16,7.5.44.48.95.93,1.57,1.13.42.14.88.15,1.32.12,2.3-.13,4.45-1.19,6.37-2.47,1.47-.98,2.92-2.2,3.51-3.87.49-1.37.34-2.88.06-4.31-.45-2.32-1.35-4.74-3.32-6.04-1.45-.95-2.5-.36-4.02-.29-1.75.09-3.26-.24-4.98.42"/>
  <path class="cls-1" d="M103.57.5c-.79.26-2.93.87-4.25,2.81-2.81,4.13-.88,9.38-.54,10.23.62,1.53,1.39,3.44,3.45,4.45,1.82.9,4.23.88,6.07-.33,2.52-1.65,2.74-4.68,2.79-5.74.01-.32-.11-1.29-.36-3.22-.53-3.95-.86-5.15-1.52-6.37-.48-.89-.84-1.53-1.61-1.95-1.36-.75-2.93-.24-4.02.11"/>
  <path class="cls-1" d="M86.08,3.87c-.4.22-.79.47-1.07.83-.24.3-.4.65-.52,1.02-.49,1.54-.22,3.22.34,4.73.57,1.51,1.42,2.89,2.15,4.33.89,1.76,1.62,3.65,2.98,5.07,1.37,1.42,3.63,2.23,5.34,1.25.72-.41,1.25-1.08,1.7-1.77,1.95-3.02,2.49-6.84,1.69-10.33-.37-1.6-1.03-3.34-1.99-4.69-.91-1.28-2.66-1.59-4.15-1.74-2.22-.23-4.52.21-6.48,1.3"/>
  <path class="cls-1" d="M76.47,11.14c-.67.56-1.33,1.16-1.79,1.9-1.08,1.72-.86,4.14.5,5.64,1.04,1.14,2.55,1.69,4.01,2.2,1.5.53,3.01,1.06,4.52,1.54,1.15.37,2.33.71,3.54.66,1.36-.05,2.7-.62,3.68-1.58.61-.59,1.08-1.32,1.3-2.14.68-2.46-1.81-4.88-3.38-6.45-1-1-2.74-2.7-5.5-3.34-.59-.14-1.61-.36-2.92-.19-2.02.27-3.41,1.29-3.96,1.75"/>
  <path class="cls-1" d="M67.73,22.11c-.23.62-.77,2.08-.67,3.84.02.29.17,4.74,3.22,6.06,1.44.62,3.07.52,4.63.53,1.8.01,3.61.19,5.39-.06,1.78-.25,3.59-.99,4.65-2.45,1.33-1.82,1.21-4.39.23-6.42-.97-2.03-2.65-3.62-4.36-5.09-.49-.42-1-.85-1.59-1.12-.95-.43-1.86-.46-2.78-.4-2.33.15-5.5.34-7.44,2.71-.7.86-1.04,1.75-1.28,2.4"/>
  <path class="cls-1" d="M50.61,73.9s4.93-.01,9.66,6.35c.33.44.31.8.29.92-.04.34-.28.66-.52.95-1.83,2.25-4.22,4.54-7.11,4.84-1.31.14-2.56-.16-3.76-.5-1.28-.36-2.54-.78-3.77-1.24-.9-.34-1.8-.71-2.5-1.32-1.52-1.3-1.86-3.51-1.37-5.55.18-.75.49-1.53,1.1-2.1.74-.7,1.62-.93,2.33-1.11,3.31-.83,4.97-1.24,5.65-1.24"/>
  <path class="cls-1" d="M44.77,98.35c0,1.58,1.06,2.86,2.17,3.95,1.64,1.61,3.55,3.07,5.93,3.66.86.21,1.76.3,2.66.4.48.05.98.1,1.47-.03.43-.11.83-.35,1.21-.6,1.73-1.13,3.32-2.51,4.42-4.17,1.1-1.66,1.68-3.61,1.33-5.37-.4-1.98-1.89-3.5-3.46-4.78-2.31-1.89-6.85-4.31-10.09-1.41-1.08.97-1.77,2.33-2.75,3.4-1.36,1.47-2.87,3.02-2.87,4.96"/>
  <path class="cls-1" d="M45.56,90.04c.63,4.12,5.69,5.76,9.65,6.89,1.29.37,2.69.61,4.1.36,2.18-.38,4.18-1.98,5.08-3.9.9-1.92.73-4.09-.29-5.74-1.03-1.66-2.8-2.75-4.39-3.97-.71-.55-1.43-1.14-2.36-1.35-.65-.15-1.36-.09-2.06-.04-1.2.09-2,.31-2.83.5-3.14.72-3.33.33-4.17.75-1.97.97-3.11,4.12-2.74,6.5"/>
  <path class="cls-1" d="M41.24,100.97c-.96.96-1.92,1.96-2.48,3.12-.88,1.84-.64,3.89.23,5.53.86,1.64,2.28,2.94,3.76,4.13,1.23.98,2.52,1.91,4.02,2.55.88.37,1.86.64,2.89.49.86-.13,1.69-.55,2.42-1.05,1.91-1.32,3.3-3.28,3.92-5.33.36-1.2.46-2.48-.03-3.54-.27-.58-.71-1.07-1.15-1.55-1.06-1.15-2.15-2.28-3.27-3.38-.87-.85-1.87-2.23-3.19-2.54-.93-.22-2.09.09-3.06.05-1.76-.07-2.71.16-4.05,1.51"/>
  <path class="cls-1" d="M27.48,116.05c-.2,1.46.23,2.87.86,4.13,1.69,3.38,4.88,5.99,8.76,7.17,1.56.47,3.37.71,4.99-.01,2.22-.98,3.31-3.35,4.05-5.48.36-1.04.69-2.1.77-3.15.12-1.76-.5-3.43-1.47-4.83-.97-1.4-2.27-2.56-3.6-3.67-1.82-1.5-4.71-4.82-7.75-2.98-1.58.96-2.87,2.69-4.02,4.05-1.22,1.43-2.35,3.02-2.59,4.78"/>
  <path class="cls-1" d="M25.38,110.37c-2.65-.09-5.01,1.77-6.13,3.22-.93,1.2-1.26,2.45-1.45,3.12-.3,1.05-.34,2.12-.29,3.16.11,2.35.66,4.64,1.63,6.72.38.81.85,1.62,1.66,2.07.67.37,1.51.46,2.32.55.9.09,1.84.18,2.75-.09,1.09-.33,1.99-1.13,2.73-1.97,1.96-2.25,3.12-5.05,3.2-7.75.06-1.96-.43-3.86-1.41-5.49-.8-1.33-2.25-3.45-5.01-3.54"/>
  <path class="cls-1" d="M62.96,89.13c.18.24.69.88.98,1.01,3.1,1.33,5.42,3.9,6.31,6.98.09.31.17.66.04.98-.13.34-.44.6-.74.84-2.3,1.86-5.14,3.64-7.94,3.32-1.27-.14-2.37-.71-3.41-1.31-1.11-.64-2.19-1.33-3.23-2.06-.76-.54-1.52-1.1-2.02-1.86-1.1-1.63-.86-3.92.12-5.85.36-.71.85-1.43,1.57-1.87.74-.46,1.63-.58,2.48-.61,1.84-.08,3.64.16,5.29.71l.56-.29Z"/>
  <path class="cls-1" d="M52.44,110.27c-.28,1.59.52,3.04,1.4,4.3,1.3,1.86,2.89,3.62,5.09,4.57.79.34,1.65.57,2.5.79.46.12.93.24,1.42.19.44-.05.86-.23,1.27-.43,1.87-.89,3.65-2.04,5-3.54,1.35-1.51,2.26-3.39,2.22-5.21-.04-2.05-1.21-3.8-2.51-5.33-1.9-2.24-5.87-5.36-9.51-2.92-1.22.82-2.12,2.09-3.25,3.02-1.57,1.28-3.31,2.61-3.65,4.57"/>
  <path class="cls-1" d="M59.89,96.37c-1.43.52-2.82,1.19-4.12,1.99-.42.26-.85.55-1.13.94-.59.84-.34,1.86.02,2.7,1.51,3.62,4.41,6.61,8.12,8.37,1.19.57,2.49,1.01,3.9.97,2.18-.06,4.39-1.38,5.6-3.18,1.21-1.8,1.43-4.02.73-5.83-.7-1.82-2.23-3.19-3.55-4.65-.59-.66-1.18-1.36-2.04-1.71-.61-.25-1.3-.3-1.99-.35-.93-.07-1.88-.13-2.82.08-.57.13-1.12.36-1.67.58-1,.41-2.01.83-3.01,1.24"/>
  <path class="cls-1" d="M48.56,112.38c-1.09.82-2.2,1.69-2.95,2.78-1.18,1.72-1.3,3.82-.75,5.61s1.69,3.3,2.92,4.71c1.01,1.17,2.1,2.3,3.44,3.16.79.51,1.69.93,2.7.93.86,0,1.73-.3,2.52-.7,2.08-1.05,3.77-2.81,4.73-4.79.56-1.15.88-2.43.6-3.57-.16-.63-.5-1.18-.84-1.73-.82-1.32-1.68-2.61-2.57-3.89-.7-.99-1.41-2.52-2.64-3.04-.86-.36-2.03-.22-2.97-.4-1.69-.33-2.65-.24-4.18.92"/>
  <path class="cls-1" d="M32.61,125.53c-.45,1.45-.28,2.93.11,4.29,1.04,3.66,3.66,6.76,7.21,8.52,1.43.71,3.14,1.21,4.83.73,2.32-.66,3.79-2.89,4.88-4.93.53-.99,1.04-2.01,1.3-3.06.43-1.76.12-3.53-.57-5.09-.69-1.55-1.74-2.92-2.84-4.23-1.49-1.78-3.7-5.56-6.97-4.15-1.69.73-3.24,2.29-4.6,3.48-1.43,1.26-2.8,2.7-3.35,4.43"/>
  <path class="cls-1" d="M31.58,119.5c-.36-.27-.74-.55-1.19-.7-.97-.31-2.16.06-3.06.69-.9.63-1.58,1.5-2.24,2.35-.73.94-1.46,1.88-1.95,2.92-.47,1.01-.7,2.08-.84,3.14-.31,2.39-.17,4.77.4,7.01.22.87.54,1.76,1.24,2.33.58.48,1.37.69,2.14.89.86.23,1.75.46,2.68.32,1.11-.17,2.12-.84,2.98-1.58,2.29-1.98,3.9-4.62,4.46-7.34.4-1.96.26-3.95-.39-5.74-.75-2.04-2.5-3-4.22-4.31"/>
  <path class="cls-1" d="M55.4,121.36c-.25,1.41.46,2.7,1.24,3.81,1.15,1.65,2.56,3.21,4.51,4.05.7.3,1.46.5,2.22.7.4.11.82.21,1.26.17.39-.04.77-.21,1.13-.38,1.65-.79,3.23-1.81,4.43-3.14,1.2-1.33,2-3,1.97-4.62-.03-1.82-1.07-3.37-2.22-4.73-1.69-1.99-5.2-4.75-8.43-2.58-1.08.72-1.88,1.85-2.88,2.67-1.39,1.13-2.93,2.32-3.23,4.05"/>
  <path class="cls-1" d="M62.01,109.04c-1.27.46-2.5,1.06-3.65,1.77-.38.23-.75.49-1,.84-.52.74-.3,1.65.01,2.4,1.34,3.21,3.91,5.86,7.2,7.42,1.05.5,2.21.9,3.46.86,1.93-.06,3.89-1.22,4.96-2.82,1.07-1.6,1.27-3.56.65-5.16-.62-1.62-1.98-2.83-3.15-4.12-.53-.58-1.04-1.21-1.81-1.52-.54-.22-1.15-.26-1.76-.31-.83-.06-1.67-.12-2.5.07-.51.11-1,.32-1.48.52-.89.37-1.78.73-2.67,1.1"/>
  <path class="cls-1" d="M51.96,123.23c-.97.73-1.95,1.49-2.61,2.46-1.04,1.53-1.15,3.39-.67,4.97.48,1.58,1.5,2.93,2.58,4.18.9,1.04,1.86,2.04,3.05,2.8.7.45,1.5.82,2.4.82.76,0,1.53-.26,2.24-.62,1.85-.93,3.34-2.49,4.19-4.24.5-1.02.78-2.15.53-3.17-.14-.56-.44-1.05-.74-1.54-.73-1.17-1.49-2.32-2.28-3.44-.62-.88-1.25-2.23-2.34-2.69-.76-.32-1.8-.19-2.64-.35-1.5-.29-2.35-.21-3.71.82"/>
  <path class="cls-1" d="M39.2,129.65c-.4,1.28-.25,2.6.09,3.8.92,3.24,3.25,5.99,6.4,7.55,1.27.63,2.78,1.07,4.28.65,2.06-.59,3.36-2.56,4.33-4.37.47-.88.92-1.78,1.15-2.71.38-1.56.11-3.13-.5-4.51-.61-1.38-1.54-2.59-2.52-3.75-1.32-1.58-3.28-4.92-6.18-3.68-1.5.65-2.87,2.03-4.07,3.08-1.27,1.12-2.48,2.39-2.97,3.93"/>
  <path class="cls-1" d="M36.9,129.55c-.32-.24-.65-.49-1.06-.62-.86-.27-1.91.05-2.71.61-.8.56-1.4,1.33-1.98,2.08-.65.83-1.3,1.67-1.73,2.59-.42.9-.62,1.85-.74,2.78-.27,2.12-.15,4.23.36,6.22.2.77.47,1.56,1.1,2.07.52.42,1.22.61,1.9.79.76.2,1.55.4,2.37.28.99-.15,1.88-.75,2.65-1.4,2.03-1.75,3.46-4.1,3.95-6.51.36-1.74.23-3.51-.35-5.09-.66-1.81-2.21-2.66-3.74-3.82"/>
  <path class="cls-1" d="M13.98,111.31c-.36-.18-.73-.37-1.16-.44-.9-.14-1.89.33-2.58.98-.7.65-1.16,1.47-1.61,2.27-.5.88-1,1.78-1.27,2.72-.26.92-.3,1.85-.26,2.76.1,2.06.58,4.05,1.43,5.87.33.71.74,1.42,1.45,1.81.59.33,1.31.41,2.02.48.79.08,1.61.16,2.4-.08.95-.28,1.74-.99,2.38-1.72,1.71-1.97,2.72-4.41,2.8-6.77.05-1.71-.38-3.37-1.23-4.79-.97-1.62-2.66-2.21-4.38-3.09"/>
  <path class="cls-1" d="M17.92,120.47c-.36-.18-.73-.37-1.16-.44-.9-.14-1.89.33-2.58.98-.7.65-1.16,1.47-1.61,2.27-.5.89-1,1.78-1.27,2.72-.26.92-.3,1.85-.26,2.76.09,2.06.58,4.05,1.43,5.87.33.71.74,1.42,1.45,1.81.59.33,1.31.41,2.02.48.79.08,1.61.16,2.4-.08.95-.28,1.74-.99,2.38-1.72,1.71-1.97,2.72-4.41,2.8-6.77.05-1.71-.38-3.37-1.23-4.79-.97-1.62-2.66-2.21-4.38-3.09"/>
  <path class="cls-1" d="M31.31,75.93c-1.29,1.47-1.98,3.43-1.49,5.09.31,1.03,1.03,1.86,1.77,2.64,1.67,1.76,3.62,3.42,6.16,4.01.6.14,1.25.21,1.89.04.43-.12.84-.34,1.22-.59,1.97-1.28,3.39-3.18,4.5-5.12.86-1.49,1.58-3.15,1.36-4.7-.19-1.28-1-2.34-1.88-3.27-1.44-1.51-3.32-2.87-5.65-2.83-1.71.03-2.37,1.01-3.67,1.85-1.5.97-2.99,1.49-4.2,2.87"/>
  <path class="cls-1" d="M21.96,78.39c-.58.6-2.19,2.16-2.48,4.29-.62,4.54,3.45,7.49,4.14,7.96,1.23.83,2.77,1.87,5.05,1.57,2.01-.26,4.12-1.5,5.21-3.36,1.47-2.53.3-4.92-.13-5.74-.13-.25-.67-.91-1.77-2.23-2.25-2.69-3.07-3.43-4.21-4-.83-.42-1.43-.71-2.3-.64-1.54.13-2.69,1.32-3.5,2.15"/>
  <path class="cls-1" d="M8.05,89.89c-.25.37-.48.76-.57,1.17-.08.35-.06.7,0,1.03.26,1.4,1.26,2.54,2.44,3.38,1.18.84,2.55,1.44,3.84,2.15,1.57.87,3.07,1.91,4.91,2.28,1.85.36,4.2-.19,5.27-1.8.45-.67.61-1.45.7-2.2.36-3.27-.89-6.42-3.16-8.62-1.04-1.01-2.41-1.98-3.86-2.5-1.38-.49-3.06.17-4.44.82-2.06.97-3.9,2.47-5.12,4.3"/>
  <path class="cls-1" d="M2.86,100.27c-.33.77-.65,1.55-.73,2.34-.18,1.84,1.1,3.55,2.98,3.98,1.43.32,3.01-.04,4.52-.4,1.56-.37,3.12-.75,4.68-1.16,1.18-.32,2.37-.66,3.42-1.32,1.18-.74,2.1-1.85,2.54-3.07.27-.75.36-1.55.19-2.27-.51-2.2-3.8-2.74-5.89-3.11-1.33-.24-3.64-.62-6.35.31-.58.2-1.58.55-2.66,1.36-1.67,1.24-2.42,2.71-2.7,3.34"/>
  <path class="cls-1" d="M.09,112.99c.07.58.26,1.95,1.14,3.23.15.21,2.28,3.48,5.57,2.9,1.55-.27,2.94-1.18,4.32-1.98,1.59-.91,3.27-1.71,4.72-2.81,1.46-1.1,2.71-2.58,3-4.22.35-2.04-.92-3.92-2.69-4.94-1.77-1.03-3.97-1.36-6.14-1.58-.62-.07-1.26-.12-1.9-.02-1.03.16-1.85.61-2.63,1.12-1.99,1.31-4.7,3.08-5.34,5.85-.23,1-.13,1.84-.05,2.46"/>
</svg>