<?xml version="1.0" encoding="UTF-8"?>
<svg id="Layer_1" data-name="Layer 1" xmlns="http://www.w3.org/2000/svg" viewBox="0 0 47.39 52.45">
  <defs>
    <style>
      .cls-1 {
        fill: #afa6d1;
      }
    </style>
  </defs>
  <path class="cls-1" d="M28.3,19.4c-.34.03-.79.16-1.22.4-1.61.88-2.52,3.51-1.62,5.31.24.49.55.78.83,1.04,1.08,1,3.2,2.09,5.11,1.21,1.28-.59,1.81-1.76,1.95-2.04.79-1.61.18-3.6-.92-5.01-.26-.33-.56-.66-.96-.81-.24-.09-.5-.12-.75-.13-.8-.05-1.61-.04-2.41.04"/>
  <path class="cls-1" d="M33.75,16.89c1.63-.07,2.85-.71,3.48-1.11-.1.15-2.16,3.22-.66,6.46,1.1,2.38,3.35,3.2,3.78,3.35-.98-.06-1.97-.04-2.87.36-.51.24-1.09.64-1.74,1.47-2,2.53-3.67,7.84-3.9,8.58-.45-1.67-1.13-2.78-1.57-3.38-.49-.68-.9-1.05-1.16-1.26-.47-.39-1-.74-1.59-.9-.61-.16-1.25-.11-1.88-.06-.93.08-1.86.15-2.76.38-.92.23-1.57.32-2.44.71.42-.66,2.36-3.83,1.38-6.91-.42-1.3-1.37-2.62-1.55-2.87-.73-.99-1.48-1.7-2.05-2.17.74.16,2.85.51,5.06-.56,3.6-1.74,4.29-5.69,4.36-6.09.52,1.76,2.04,3.18,3.8,3.69.28.08,1.15.35,2.32.3M12.83.59c-3.14,1.14-5.11,3.98-6.82,6.7-1.85,2.95-3.65,5.97-4.74,9.27C-1.04,23.52-.04,31.36,2.92,38.35c1.08,2.55,2.42,5.04,4.33,7.14,3.55,3.93,9.53,5.72,14.68,6.62,6.45,1.13,13.21-.58,18.12-4.4.87-.67,1.68-1.41,2.36-2.26,1.21-1.5,1.95-3.29,2.68-5.06.78-1.89,1.57-3.79,1.96-5.8.43-2.22.38-4.52.24-6.8-.22-3.55-.67-7.16-2.16-10.49-.79-1.75-1.85-3.39-2.95-4.99-1.27-1.85-2.61-3.69-4.37-5.14-2.06-1.7-4.59-2.78-7.07-3.84-1.77-.75-3.54-1.51-5.39-2.05-1.9-.56-3.86-.89-5.82-1.1-2.27-.25-4.62-.35-6.7.41"/>
</svg>