<?xml version="1.0" encoding="UTF-8"?>
<svg id="Layer_1" data-name="Layer 1" xmlns="http://www.w3.org/2000/svg" viewBox="0 0 131.37 134.33">
  <defs>
    <style>
      .cls-1 {
        fill: #cbdcb8;
      }
    </style>
  </defs>
  <path class="cls-1" d="M98.16,82.97c-1.23-2.06-2.43-3.86-3.65-5.46,4.9-3.07,10.22-7.77,18.19-17.74,13.24-16.55,18.67-24.49,18.67-24.49,0,0-41.34-.34-51.36,5.64-2.3,1.37-4.28,2.72-6.01,4.06-3.65-7.91-6.44-13.92-21.95-26.31C35.49,5.44,27.56,0,27.56,0c0,0-.33,41.33,5.65,51.36,1.23,2.06,2.43,3.86,3.64,5.46-4.89,3.07-10.21,7.76-18.18,17.74C5.43,91.11,0,99.04,0,99.04c0,0,41.34.35,51.36-5.63,2.3-1.38,4.28-2.72,6.01-4.06,3.64,7.91,6.44,13.92,21.94,26.31,16.55,13.23,24.49,18.67,24.49,18.67,0,0,.33-41.34-5.65-51.36"/>
</svg>