<?xml version="1.0" encoding="UTF-8"?>
<svg id="Layer_1" data-name="Layer 1" xmlns="http://www.w3.org/2000/svg" viewBox="0 0 190.24 110.7">
  <defs>
    <style>
      .cls-1 {
        fill: #e48994;
      }
    </style>
  </defs>
  <path class="cls-1" d="M170.81,55.11c-3.36,2.29-5.1,6.26-7.64,9.44-4.26,5.33-10.68,8.35-16.37,12.13-5.22,3.47-9.92,7.69-15.12,11.18-9.5,6.38-20.44,10.23-31.25,14.01-12.88,4.5-26.11,9.07-39.75,8.81-9.32-.18-18.47-2.61-27.78-3.15-4-.23-8.03-.11-12-.64-7.79-1.03-15.23-4.6-20.9-10.04.14-.87,1.12-1.51,2-1.53,9.15-.11,18.31-.23,27.41-1.22,20.02-2.2,39.56-8.73,56.88-19.02,12.29-7.31,23.4-16.42,34.49-25.45,7.63-6.21,15.29-12.4,23.45-17.88.71-.47,2.15-.75,2.6-.03.46.72.57,1.6.95,2.36,1.26,2.5,4.81,2.76,6.77,4.77,1.93,1.98,1.95,5.25,3.78,7.32,1.58,1.78,4.11,2.26,6.24,3.3,2.2,1.07,5.02,3.54,6.24,5.66"/>
  <path class="cls-1" d="M190.24.75c-1.73,5.13-4.59,11.77-9.42,18.7-3.14,4.51-6.42,8.13-9.34,10.95,1.38,1.85,3.82,5.11,3.11,13.41-.32,3.72-1.52,6.66-2.53,8.59-1.75-2.5-3.8-5.21-6.81-5.78-.7-.13-1.43-.14-2.11-.37-.95-.32-1.71-1.04-2.42-1.74-1.23-1.19-2.48-2.41-3.29-3.92-1.15-2.12-1.59-4.95-3.77-5.98-.81-.38-1.75-.44-2.51-.89-1.72-1.02-1.97-3.63-3.73-4.6,1.35-1.23,6.77-5.9,14.25-5.39,2.45.17,6.24,3.72,7.75,4.41,3.1-2.67,6.85-6.4,10.4-11.39,4.47-6.29,7.02-12.31,8.51-16.76.29.14.61.28,1.92.75"/>
</svg>