<?xml version="1.0" encoding="UTF-8"?>
<svg id="Layer_1" data-name="Layer 1" xmlns="http://www.w3.org/2000/svg" viewBox="0 0 121.04 124.84">
  <defs>
    <style>
      .cls-1 {
        fill: #f2de4e;
      }
    </style>
  </defs>
  <path class="cls-1" d="M37.37,99.53c.95-2.39,2.04-4.74,3.31-7.01.41-.7,1.08-2.76,1.86-1.52.45.75-.18,2.44-.45,3.15-.46,1.24-1.16,2.42-1.76,3.62-2.09,4.35-2.42,9.4-4.71,13.67-.67,1.27-1.59,2.51-3,2.93,1.42-5.01,2.83-10.02,4.75-14.85M4.96,82.44c5.19-1.34,10.41-2.67,15.7-3.49,2.64-.4,5.31-.67,7.99-.77.84-.02,3.03-.47,2.34.77-.42.73-2.26,1.07-3.02,1.22-1.36.23-2.77.22-4.15.33-5,.46-9.64,2.72-14.67,2.97-1.46.06-3.07-.09-4.18-1.03M32.29,62.79c.04-.71.72-9.66,4.97-16.87.76-1.28,1.75-2.7,3.42-3.9,1.73-1.24,3.87-1.73,5.96-2.21,9.19-2.08,13.99-2.22,17.2-1.81,4.64.6,10.7,1.39,13.83,5.68.32.46.42.71,2.91,6.63,2.09,4.98,3.13,7.46,3.17,7.65,2.49,7.36-1.04,16.16-5.38,21.56-1.57,1.97-5.03,6.17-11.06,7.96-2.4.72-4.41.78-5.93.86-1.37.06-6.88.16-13.24-2.53-3.47-1.46-5.76-3.14-8.36-5.04-2.97-2.17-4.48-3.27-5.62-4.83-2.51-3.44-2.25-7.15-1.86-13.15M7.03,53.23c-1.36-.55-2.77-1.37-3.33-2.69,5.29,1,10.64,1.98,15.83,3.47,2.58.74,5.13,1.62,7.61,2.65.79.32,2.96.84,1.77,1.66-.7.49-2.55.02-3.27-.19-1.36-.35-2.62-.95-3.95-1.41-4.74-1.69-10-1.65-14.67-3.49M52.88,34.7c-.67-.55-.67-2.36-.68-3.12.02-1.35.3-2.67.43-3.99.47-4.82-.93-9.73-.27-14.53.18-1.4.65-2.9,1.84-3.72.35,5.2.74,10.41.6,15.6-.08,2.61-.3,5.18-.72,7.73-.11.78-.06,2.96-1.21,2.03M107.51,44.18c1.47-.09,3.07.06,4.19,1.01-5.19,1.34-10.41,2.67-15.72,3.49-2.61.4-5.28.68-7.96.78-.84.02-3.04.47-2.35-.77.42-.73,2.26-1.07,3.02-1.2,1.36-.26,2.78-.25,4.13-.36,5-.46,9.67-2.71,14.69-2.94M91.01,69.5c1.36.34,2.62.95,3.94,1.41,4.74,1.69,9.98,1.64,14.67,3.52,1.37.52,2.78,1.34,3.34,2.67-5.32-1-10.64-1.98-15.83-3.47-2.58-.74-5.14-1.59-7.61-2.65-.79-.32-2.96-.84-1.77-1.66.7-.49,2.52-.02,3.27.2M79.26,91.57c.55,1.24.85,2.58,1.28,3.85,1.6,4.62,4.94,8.62,6.32,13.3.43,1.38.64,2.93-.1,4.13-2.52-4.62-5.04-9.27-7.09-14.15-1-2.42-1.88-4.87-2.6-7.39-.21-.77-1.17-2.78.25-2.36.83.24,1.61,1.94,1.93,2.63M64.3,114.57c-.18,1.4-.65,2.9-1.84,3.72-.38-5.21-.74-10.41-.6-15.6.08-2.61.3-5.18.72-7.73.11-.78.06-2.96,1.21-2.03.67.55.66,2.39.65,3.11,0,1.36-.27,2.67-.41,4-.47,4.82.93,9.73.27,14.53M97.53,116.27l23.51-49.17-12.1-42.07c-.18-.31-.36-.64-.57-.95l-24.65-9.69c-1.32,4.63-2.67,9.25-4.43,13.71-.98,2.38-2.04,4.74-3.31,7.01-.41.7-1.1,2.75-1.86,1.52-.45-.72.19-2.44.45-3.15.46-1.24,1.16-2.39,1.75-3.6,2.09-4.38,2.42-9.43,4.69-13.71.44-.81.99-1.62,1.68-2.2L47.19,0c-.62.07-1.23.18-1.83.29l-14.99,15.39c2.39,4.33,4.69,8.72,6.6,13.25,1.03,2.43,1.91,4.87,2.6,7.39.23.81,1.2,2.79-.25,2.36-.83-.24-1.59-1.93-1.9-2.62-.55-1.24-.85-2.55-1.3-3.85-1.57-4.61-4.92-8.61-6.3-13.29-.22-.72-.39-1.51-.38-2.26L2.26,44.51c-1.6,6.25-5.09,23.32,2.15,43.01,6.6,17.92,18.49,28.24,23.68,32.25,8.25,2.8,22.85,6.53,40.91,4.48,12.13-1.38,21.84-4.91,28.52-7.98"/>
</svg>