<?xml version="1.0" encoding="UTF-8"?>
<svg id="Layer_1" data-name="Layer 1" xmlns="http://www.w3.org/2000/svg" viewBox="0 0 193.85 124.45">
  <defs>
    <style>
      .cls-1 {
        fill: #c78887;
      }
    </style>
  </defs>
  <path class="cls-1" d="M191.77,114.58c-.53,1.32-1.43,2.45-2.37,3.5-1.26,1.4-2.63,2.68-4.04,3.91-.3.27-.66.39-1.05.52-.38.12-.78.1-1.19.07-1.57-.3-3.14-.55-4.72-.71.8-1.89,2.21-4.95,2.82-6.33,1.33-3.02,3.52-5.41,5.95-7.62.81-.74,1.52-.79,2.41-.03.43.37.87.72,1.32,1.06.33.49.69.96.93,1.49.59,1.29.47,2.82-.05,4.14M173.4,121.57c-4.15-.13-8.32-.17-12.24-1.46-1.36-.44-2.68-1.03-4.08-1.37-1.24-.3-2.52-.39-3.72-.79-1.12-.38-2.19-1.09-2.66-2.14-.01-1.36,0-2.72.12-4.07.39-5.01,2.59-9,7.66-10.58,2.45-.77,5.08-1.18,7.65-1.3,4.28-.21,8.54-.26,12.51-2.21,1.09-.54,1.98-.12,2.73.75,1.12,1.32,2.27,2.6,3.39,3.93,1.39,1.66,1.36,1.84-.2,3.29-4.3,3.98-8.78,10.7-11.14,15.95M145.68,107.63c-.98,1.78-1.22,1.82-2.63.29-1.55-1.69-3.21-3.21-5.5-3.83-1.08-.29-1.55-1.04-1.67-2.12-.15-1.29-.41-2.56-.62-3.84-.11,0-.21,0-.31,0-.07-2.89-.48-5.84-.14-8.68.78-6.37,4.46-11.09,9.77-14.38,2.76-1.7,5.95-2.73,8.98-3.98,1.31-.53,2.21-.08,2.75,1.34,1.49,3.94,4.57,6.64,7.63,9.3,2.64,2.3,5.42,4.47,8.07,6.77.97.84,1.82,1.85,2.58,2.9,1.47,2.05.98,4.26-1.4,4.97-2.44.73-5.08.74-7.62,1.16-3.45.57-6.94.97-10.31,1.89-4.39,1.2-7.42,4.27-9.58,8.21M127.52,99.03c-.12,1.35-.46,1.91-1.94,1.85-1.93-.09-3.88.12-5.82.24-2.74.17-2.96.04-3.42-2.62-.51-2.99-1-5.98-1.49-8.97-.17.02-.35.04-.52.05-.35-4.35-.87-8.69-.97-13.05-.06-2.29.61-4.59.97-6.88.17-1.08.75-1.49,1.93-1.42,6.08.36,9.3-2.73,9.33-8.85.01-3.61-.17-7.24.09-10.84.24-3.26,2.76-5.73,6.01-6.4,2.11-.44,4.25-.82,6.4-1.07,3.97-.45,7.5-1.97,10.75-4.24,1.61-1.12,1.77-1.01,2.71.8,2.3,4.4,2.47,8.82.66,13.46-.82,2.09-1.25,4.36-1.65,6.59-.53,3.03.36,5.9,1.42,8.71.74,1.95.68,2.11-1.41,2.59-4.88,1.11-9.32,3.11-13.22,6.27-4.66,3.77-7.41,8.72-8.64,14.48-.65,3.05-.89,6.18-1.17,9.3M107.65,82.87c-1.41,5.84-.63,11.6,1.95,17.07.31.67.54,1.37.98,2.47-1.08-.01-1.78.08-2.43-.05-2-.44-4.01-.87-5.97-1.48-4.18-1.3-8.19-1-12.13.92-1.77.85-2.35.65-2.61-1.2-.7-5.22-2.09-10.47-.54-15.75,2.25-7.64,4.98-15.1,9.75-21.6,1.11-1.52,2.47-2.85,3.76-4.24.8-.87,1.59-.89,2.46.07,2.49,2.78,5.13,5.42,8.52,7.14,1.53.77.89,1.92.51,3.07-1.47,4.51-3.15,8.97-4.26,13.57M79.87,86.5c-1.69,5.59-1.66,11.29-.09,16.96.78,2.8.72,2.89-1.92,3.96-5.86,2.38-13.73-.22-17.27-5.47-2.45-3.6-3.19-7.62-3.6-11.79-.12-1.23.31-2.15,1.48-2.79,3.11-1.72,4.85-4.48,5.23-7.94.49-4.4.73-8.82,1.09-13.23.42-5.28,1.99-10.05,6.16-13.66,2.74-2.37,6.12-3.42,9.46-4.45,4.52-1.39,8.85-3.15,12.77-5.84.43-.29.92-.48,1.59-.82.18.68.33,1.03.36,1.39.37,4.08,1.89,7.75,4.03,11.18.71,1.14.57,1.84-.43,2.75-9.02,8.17-15.34,18.1-18.87,29.74M61.39,112.66c-.73.19-1.52.52-2.34.57-5.66.37-11.07-2.86-12.67-7.67-1.96-5.88-.59-11.99,4.4-15.3.63-.42,1.22-.91,1.88-1.26,1.39-.75,1.85-.37,1.97,1.2.3,3.65.52,7.32,1.15,10.92.67,3.88,2.33,7.4,5.15,10.29.18.19.33.42.46.66.05.08.01.2.02.6M55.37,73.64c-.32,1.71-.89,2.01-2.24.96-1.95-1.53-3.95-3.05-5.69-4.8-3.91-3.93-4.87-8.78-3.9-14.09.37-2.01.74-4.07,1.47-5.97,1.72-4.48,1.62-9.11,1.56-13.76-.03-3.06,1.59-4.98,4.28-6.05,2-.79,4.09-1.36,6.24-2.06,3.02-.08,6.11-.06,9.17-.26,2.73-.18,5.51-.36,8.17-.97,3.53-.8,5.66-3.2,6.37-6.8.25-1.22.4-2.49.87-3.62.26-.63,1.04-1.4,1.66-1.46,5.61-.58,9.94,1.02,11.64,7.45,1.24,4.69.91,9.45.28,14.18-.25,1.88-1.47,3.16-3.08,4.15-4.17,2.57-8.87,3.64-13.55,4.76-4.24,1.01-8.22,2.64-11.8,5.18-5.87,4.16-8.74,10.15-10.28,16.92-.47,2.06-.78,4.14-1.16,6.22M37.31,68.47c.71,2.23-.35,3.56-2.8,3.36-5.43-.45-9.88-2.89-13.49-6.93-6.67-7.44-7.22-16.09-4.85-25.25.18-.69,1.14-1.29,1.86-1.68,2.27-1.21,4.72-2.11,6.87-3.49,1.79-1.15,2.63-3.12,2.76-5.28.6-9.72,6.27-16.23,15.92-18.23,4.71-.97,9.45-1.04,14.18-.19.74.13,1.53.57,2.06,1.11,3.3,3.33,6.53,6.73,9.78,10.12.1.11.15.27.43.79-1.43.46-2.68.99-3.98,1.23-4.03.75-8.1,1.39-12.15,2.09-4.38.75-8.4,2.38-10.44,6.54-1.28,2.6-2.06,5.59-2.4,8.49-.51,4.39-1.53,8.6-3.09,12.71-1.82,4.79-2.23,9.65-.66,14.61M19.75,72.54c-.9.15-1.79.38-2.7.43-6.76.38-13.1-4.57-14.21-11.25-1.44-8.67,1.46-15.81,7.95-21.58.65-.58,1.47-.95,2.21-1.43.16.12.32.24.48.36-1.03,5.81-1.86,11.6-1.02,17.51.85,5.93,2.85,11.27,7.42,15.44-.04.18-.09.35-.12.52M27.1,14.35c.78-8.89,6.74-13.46,15.34-13.12,4.95.2,9.31,2.22,13.15,5.33.38.31.66.76,1.34,1.55-2.96,0-5.42-.09-7.86,0-5.82.22-11.37,1.49-16.2,4.91-1.52,1.08-2.75,2.57-4.1,3.88-.38.37-.71.78-1.07,1.17l-.62-.13c0-1.19-.08-2.4.03-3.58M89.3,8.11c2.82-.67,5.18.2,6.83,2.57,1.24,1.77,2.03,3.73,1.14,6.42-3.72-4.44-8.57-4.6-13.95-4.27,1.49-2.87,3.5-4.14,5.98-4.71M118.71,45.69c-.55,1.08-1.27,1.26-2.21.58-1.35-.98-2.74-1.92-3.97-3.06-1.47-1.38-1.85-3.42-.92-5.05,1.37-2.41,2.76-3.94,4.92-3.44.62.15,1.28.15,1.93.17,2.47.12,4.64-.55,6.05-2.72,1.05-1.63,1.98-3.35,2.89-5.06,1.93-3.64,4.91-5.86,9.02-5.91,2.99-.03,6.02.34,8.96.94,3.21.65,3.59,1.36,3.79,4.62.23,4.02-.88,7.5-4.67,9.4-1.79.9-3.9,1.16-5.87,1.71-.02-.06-.04-.11-.05-.17-3.84.64-7.69,1.18-11.5,1.94-3.66.73-6.62,2.61-8.38,6.04M108.24,43.31c-.67-.71-1.56-1.32-1.93-2.15-.85-1.93-.21-3.72,1.14-5.22,1.4-1.57,3.1-2.58,5.66-2.24-.42.54-.61.9-.9,1.15-1.88,1.59-2.82,3.6-3.03,6.05-.07.82-.61,1.6-.93,2.41M119.3,20.41c-.17-.43.1-1.32.49-1.65,1.51-1.3,1.95-2.99,2.24-4.86.55-3.46,1.87-6.58,4.96-8.55,3.6-2.29,9.43-1.75,12.95,1.12,3.8,3.11,6.19,7.14,7.64,11.78.15.49.18,1.02.35,2.01-1.94-.56-3.4-1.06-4.91-1.41-6.66-1.59-13.07-1.31-18.92,2.77-1.17.82-4.28.12-4.8-1.19M155.96,34.86c2.58-.47,5.01-.13,6.83,1.93,1.83,2.08,1.88,4.64.82,6.99-.72,1.62-1.95,3.1-3.25,4.32-1.63,1.52-3.1,1.05-3.77-1.11-.45-1.48-.55-3.07-.79-4.5-.45-1.84-.86-3.57-1.3-5.29-.35-1.33.16-2.11,1.47-2.35M193.5,108.99c-.53-1.76-1.72-3.21-2.94-4.59-.04-.18-.09-.36-.12-.54-.76-.82-1.49-1.65-2.22-2.51-7.51-8.98-15.74-17.25-24.22-25.29-2.65-2.51-5.24-5.19-7.3-8.19-2.54-3.69-2.39-7.78.17-11.56,1.03-1.52,2.24-2.92,3.46-4.28,2.04-2.28,4-4.59,4.72-7.64,1.18-5.09-.68-11.11-7.85-11.19-1.34,0-2.7.19-4.02.45-1.36.26-1.89,0-2.05-1.54-.46-4.51-.84-9.06-1.8-13.47-1.24-5.7-3.78-10.79-8.8-14.29-4.68-3.27-9.66-3.54-14.57-1.02-5.32,2.72-7.56,7.46-7.48,13.39.02.93-.17,1.93-.53,2.78-.86,1.99-.82,3.07.76,4.51,1.98,1.79,2.79,4.07,3.09,6.61.21,1.84-.66,2.94-2.51,3.05-.84.05-1.69-.27-2.55-.31-1.92-.1-3.93-.5-5.74-.08-2.94.67-5.39,2.26-6.01,5.62-.65,3.47,1.28,7.11,4.88,8.8,1.66.77,3.43,1.3,5.17,1.89,3.54,1.21,6.63,2.99,8.32,6.51,1.2,2.51,1.35,5.07-.47,7.35-1.84,2.31-4.39,2.77-7.05,1.86-1.82-.62-3.62-1.5-5.17-2.62-3.94-2.86-6.82-6.73-9.71-10.6-4.25-5.68-4.8-11.87-3.05-18.48.71-2.67,1.43-5.33,2.02-8.03.84-3.9,1.02-7.84-.18-11.71-2.07-6.71-7.99-9.32-13.83-6.07-2.32,1.29-4.09,3.22-5.24,5.61-.81,1.7-1.51,3.47-2.08,5.26-.98,3.13-2.78,4.12-5.59,2.48-1.93-1.12-3.7-2.63-5.28-4.22-3.13-3.13-5.96-6.58-9.13-9.67C52.55,1.39,45.41-1.19,36.93.52c-8.1,1.65-13.76,7.93-14,16.21-.09,3.2.56,6.44.98,9.64.52,4-.52,5.78-4.16,7.38-2.51,1.11-5.03,2.28-7.34,3.76C3.69,43.12-1.55,53.42.41,64.1c1.91,10.44,11.25,15.55,19.95,14.23,3.39-.51,6.71-1.62,10-2.67,5.8-1.86,11.56-2.83,17.44-.46,4.06,1.64,7.84,3.66,10.55,7.26,1.32,1.76,1.07,2.78-.89,3.67-2.26,1.03-4.61,1.9-6.76,3.13-4.9,2.82-8.1,7.04-8.1,12.81,0,8.07,5.7,13.67,12.99,15.27,5.7,1.26,11.12-.04,16.23-2.47,4.97-2.35,9.79-5.05,14.68-7.6,4.74-2.47,9.71-3.94,15.11-3.63,5.02.28,10.05.45,15.05.86,7.11.59,14,2.19,20.49,5.2,2.78,1.29,5.22,3,7.12,5.31,0,.01.01.02.02.04.31.17.62.33.93.5,1.75.94,3.5,1.87,5.25,2.81,3.54,1.88,7.15,3.8,11.1,4.48,3.13.53,6.35.27,9.53.34,2.41.06,4.78.31,7.16.67h0c1.87,1.33,7.36.14,8.86-.63.9-.46,1.71-1.06,2.52-1.66.83-.6,1.66-1.23,2.27-2.04.88-1.19,1.21-2.7,1.48-4.15.4-2.11.73-4.32.1-6.37"/>
</svg>