<?xml version="1.0" encoding="UTF-8"?>
<svg id="Layer_1" data-name="Layer 1" xmlns="http://www.w3.org/2000/svg" viewBox="0 0 127.03 104.2">
  <defs>
    <style>
      .cls-1 {
        fill: #f2de4e;
      }
    </style>
  </defs>
  <path class="cls-1" d="M27,90.97c6.62,2.59,13.79,3.06,20.85,3.52,4.49.29,9.01.57,13.5.1,16.55-1.73,28.91-13.6,38.91-23.38,1.45-1.41,18.53-18.37,20.23-32.27.32-2.59.47-5.78.47-5.78.21-4.35.48-10.15-.95-16.8-.68-3.17-2.01-7.71-4.79-12.76-8.02,3.51-19.92,9.04-33.99,16.91-7.32,4.09-12.67,7.39-16.21,9.58-24.24,14.98-47.54,29.53-59.83,37.21,3.62,10.87,11.79,19.75,21.8,23.67M0,69.94c11.07-7.09,22.31-14.15,33.72-21.2C61.71,31.48,89.31,15.25,116.43,0c3.39,4.18,7.69,10.77,9.6,19.74,7.02,32.85-25.5,62.25-27.55,64.06-18.29,16.09-50.48,29.01-76.06,13.23-12.79-7.89-19.38-20.15-22.43-27.08"/>
  <path class="cls-1" d="M61.1,35.17c1.68-.9,2.88-1.5,4.57-1.57,1.84-.07,3.57.78,5.22,1.61.42.21.85.43,1.14.81.47.62.47,1.53.28,2.32-.41,1.67-1.62,3.09-3.11,3.68-1.57.61-2.96.48-3.73.35-3.28-.56-6.93-1.24-10.95-2.07,2.51-2.68,4.93-4.23,6.59-5.13"/>
  <path class="cls-1" d="M60.09,48.82c.9,1.3,1.04,3.39-.1,4.5-.45.43-1.04.67-1.63.74-2.52.31-4.51-2.03-6.07-4.16-1.03-1.42-2.07-2.84-3.1-4.25-.65-.89-1.19-1.74-1.22-2.89,3.65,2.53,9.33,2.01,12.12,6.07"/>
</svg>