<?xml version="1.0" encoding="UTF-8"?>
<svg id="Layer_1" data-name="Layer 1" xmlns="http://www.w3.org/2000/svg" viewBox="0 0 118.74 126.48">
  <defs>
    <style>
      .cls-1 {
        fill: #cbdcb8;
      }
    </style>
  </defs>
  <path class="cls-1" d="M47.58,114.91c-5-1.47-16.08-4.89-25.72-15.01C4.58,81.78,6.92,57.92,7.27,54.88c.57-5,2.31-18.45,12.86-29.58,8.4-8.87,18.36-11.99,26.58-14.58,5.63-1.77,12.22-3.78,21.01-3.43,4.05.16,15.69.76,26.15,8.15,15.9,11.22,18.37,30.51,19.29,37.73.68,5.32,3.16,27.4-11.58,45.88-2.94,3.68-10.24,12.58-23.15,16.72-13.4,4.29-24.87.91-30.87-.86M98.79,113.94c27.24-22.55,19-62.52,18.07-66.73-1.14-5.12-6.65-29.9-26.22-40.21-.94-.5-1.66-.83-2.39-1.16C72.71-1.24,55.71-.92,45.17,1.76,21.93,7.66.44,32.54,0,61.2c-.56,36.49,33.23,64.6,63.52,65.27,19.35.43,32.97-10.63,35.26-12.53"/>
  <path class="cls-1" d="M66.44,54.45c1.85-.32,3.3-.85,4.29-1.29,1.99-.88,3.04-1.78,3.43-2.14,1.03-.94,1.78-1.63,1.71-2.57-.07-1.04-1.1-2.01-2.14-2.14-.89-.11-1.75.64-3.43,2.14-2.69,2.42-3.28,3.88-3.43,4.29-.26.7-.37,1.3-.43,1.72"/>
  <path class="cls-1" d="M66.87,58.31c.5.25,1.23.58,2.14.86.75.23,2.24.61,6.86.43,3.58-.14,4.42-.44,5.15-.86.49-.28,2.19-1.26,2.14-2.57-.04-.98-1.01-1.65-1.71-2.14-1.65-1.15-3.39-1.27-3.86-1.29-2.6-.11-4.54,1.11-6.86,2.57-1.07.67-2.43,1.64-3.86,3"/>
  <path class="cls-1" d="M66.87,61.31c.33-.6,1.86.17,5.57.43,2.99.21,3.92-.16,6.43.43,2.13.5,2.93,1.1,3.43,1.72.19.23,1.26,1.53.86,3-.34,1.24-1.51,1.82-2.14,2.14-1.97.99-3.96.59-4.72.43-2.38-.51-3.84-1.84-6.43-4.29-1.71-1.61-3.38-3.18-3-3.86"/>
  <path class="cls-1" d="M65.58,64.31h0s-.45,2.97.43,5.57c.61,1.8,1.67,2.92,2.57,3.86.99,1.03,1.6,1.65,2.57,1.72.94.06,1.99-.41,2.57-1.29.61-.91.47-1.89.43-2.14-.14-.89-.62-1.43-1.71-2.57-2.77-2.89-4.38-4.31-5.57-4.72-.11-.04-1.29-.43-1.29-.43"/>
  <path class="cls-1" d="M57.09,70.3c-.77,1.72-1.13,3.22-1.31,4.28-.37,2.14-.2,3.52-.12,4.04.21,1.38.36,2.38,1.19,2.86.9.52,2.28.2,2.97-.59.59-.68.44-1.81.12-4.04-.51-3.58-1.4-4.88-1.66-5.23-.43-.6-.88-1.03-1.19-1.31"/>
  <path class="cls-1" d="M53.65,68.52c-.48.27-1.16.7-1.9,1.31-.61.5-1.76,1.52-4.17,5.46-1.87,3.05-2.09,3.92-2.15,4.76-.04.57-.17,2.52.95,3.21.83.51,1.93.08,2.74-.23,1.87-.73,2.93-2.11,3.21-2.49,1.54-2.1,1.6-4.4,1.67-7.13.04-1.26-.02-2.93-.35-4.88"/>
  <path class="cls-1" d="M51.15,66.85c.31.6-1.17,1.45-3.45,4.4-1.83,2.37-2.05,3.35-3.93,5.11-1.6,1.49-2.54,1.82-3.33,1.9-.29.03-1.97.19-2.97-.96-.84-.97-.68-2.26-.59-2.97.27-2.18,1.71-3.62,2.26-4.16,1.75-1.7,3.66-2.16,7.14-2.96,2.29-.53,4.52-1.04,4.88-.35"/>
  <path class="cls-1" d="M49.37,64.11h0s-2.22-2.02-4.87-2.74c-1.83-.5-3.35-.23-4.64,0-1.4.25-2.26.41-2.85,1.19-.58.75-.76,1.88-.36,2.85.42,1.01,1.31,1.44,1.54,1.55.82.38,1.54.28,3.09,0,3.94-.69,6.02-1.25,7.02-2.01.09-.07,1.07-.83,1.07-.83"/>
  <path class="cls-1" d="M50.48,53.48c-1.32-1.34-2.59-2.22-3.51-2.78-1.86-1.12-3.2-1.47-3.72-1.58-1.36-.3-2.35-.53-3.09.07-.81.65-1.01,2.06-.53,2.98.42.79,1.52,1.07,3.72,1.58,3.52.82,5.06.46,5.48.35.72-.19,1.28-.44,1.65-.63"/>
  <path class="cls-1" d="M53.39,50.91c-.08-.55-.23-1.34-.53-2.25-.24-.75-.78-2.19-3.58-5.87-2.17-2.85-2.9-3.37-3.65-3.72-.52-.24-2.29-1.08-3.34-.28-.78.59-.78,1.77-.77,2.63,0,2.01.9,3.5,1.16,3.9,1.4,2.19,3.51,3.09,6.04,4.15,1.17.49,2.74,1.05,4.67,1.44"/>
  <path class="cls-1" d="M55.85,49.19c-.68.07-.92-1.62-2.84-4.81-1.54-2.57-2.38-3.12-3.33-5.52-.81-2.03-.78-3.03-.56-3.79.08-.28.54-1.91,1.97-2.42,1.2-.43,2.36.19,2.99.53,1.94,1.05,2.75,2.91,3.05,3.62.95,2.24.69,4.2.17,7.73-.34,2.33-.67,4.59-1.44,4.67"/>
  <path class="cls-1" d="M59.05,48.53h0s2.69-1.33,4.32-3.55c1.13-1.53,1.43-3.04,1.69-4.32.28-1.4.44-2.25-.07-3.09-.49-.81-1.48-1.39-2.53-1.37-1.1.02-1.82.7-2,.88-.65.62-.82,1.33-1.12,2.88-.78,3.93-1.02,6.06-.67,7.27.03.11.39,1.3.39,1.3"/>
</svg>