<?xml version="1.0" encoding="UTF-8"?>
<svg id="Layer_1" data-name="Layer 1" xmlns="http://www.w3.org/2000/svg" viewBox="0 0 114.74 101.44">
  <defs>
    <style>
      .cls-1 {
        fill: #afa6d1;
      }
    </style>
  </defs>
  <path class="cls-1" d="M95.66,19.4c-.34.03-.79.16-1.22.4-1.61.88-2.52,3.51-1.62,5.31.24.49.55.78.83,1.04,1.08,1,3.2,2.09,5.11,1.21,1.28-.59,1.81-1.76,1.95-2.04.79-1.61.18-3.6-.92-5.01-.26-.33-.56-.66-.96-.81-.24-.09-.5-.12-.75-.13-.8-.05-1.61-.04-2.41.04"/>
  <path class="cls-1" d="M101.11,16.89c1.63-.07,2.85-.71,3.48-1.11-.1.15-2.16,3.22-.66,6.46,1.1,2.38,3.35,3.2,3.78,3.35-.98-.06-1.97-.04-2.87.36-.51.24-1.09.64-1.74,1.47-2,2.53-3.67,7.84-3.9,8.58-.45-1.67-1.13-2.78-1.57-3.38-.49-.68-.9-1.05-1.16-1.26-.47-.39-1-.74-1.59-.9-.61-.16-1.25-.11-1.88-.06-.93.08-1.86.15-2.76.38-.92.23-1.57.32-2.44.71.42-.66,2.36-3.83,1.38-6.91-.42-1.3-1.37-2.62-1.55-2.87-.73-.99-1.48-1.7-2.05-2.17.74.16,2.85.51,5.06-.56,3.6-1.74,4.29-5.69,4.36-6.09.52,1.76,2.04,3.18,3.8,3.69.28.08,1.15.35,2.32.3M80.19.59c-3.14,1.14-5.11,3.98-6.82,6.7-1.85,2.95-3.65,5.97-4.74,9.27-2.31,6.97-1.31,14.8,1.65,21.79,1.08,2.55,2.42,5.04,4.33,7.14,3.55,3.93,9.53,5.72,14.68,6.62,6.45,1.13,13.21-.58,18.12-4.4.87-.67,1.68-1.41,2.36-2.26,1.21-1.5,1.95-3.29,2.68-5.06.78-1.89,1.57-3.79,1.96-5.8.43-2.22.38-4.52.24-6.8-.22-3.55-.67-7.16-2.16-10.49-.79-1.75-1.85-3.39-2.95-4.99-1.27-1.85-2.61-3.69-4.37-5.14-2.06-1.7-4.59-2.78-7.07-3.84-1.77-.75-3.54-1.51-5.39-2.05-1.9-.56-3.86-.89-5.82-1.1-2.27-.25-4.62-.35-6.7.41"/>
  <path class="cls-1" d="M37.36,43.48c.22-.27.43-.56.48-.91.03-.21,0-.42-.03-.63-.1-.65-.25-1.3-.45-1.93-.08-.27-.27-.61-.53-.91-.98-1.14-3.26-1.41-4.54-.38-.35.28-.53.58-.69.85-.62,1.04-1.12,2.94-.08,4.31.69.92,1.73,1.15,1.98,1.21,1.43.35,2.92-.48,3.86-1.61"/>
  <path class="cls-1" d="M27.66,50.15c.16-.62.24-1.36.1-2.26-.44-2.78-2.87-5.82-3.21-6.24,1.36-.12,2.49-.63,3.14-.98.73-.39,1.23-.77,1.52-1.01.54-.43,1.08-.94,1.54-1.56.47-.64.83-1.36,1.17-2.06.51-1.04,1.02-2.1,1.42-3.15.4-1.07.73-1.81,1.01-2.86.17.62,1.06,3.47,3.65,3.07,1.1-.17,2.52-.93,2.79-1.07,1.08-.58,2-1.26,2.64-1.78-.55.79-2.05,3.04-2.69,5.73-1.04,4.38,1.1,6.03,1.32,6.19-1.45.18-3.29,1.55-4.68,3.38-.22.29-.92,1.2-1.59,2.5-.94,1.82-1.26,3.32-1.38,4.11-.03-.15-.79-3.11-3.79-2.18-2.21.68-4.09,2.99-4.45,3.44.63-1.08,1.22-2.17,1.49-3.26M9.52,56.98c1.72.86,3.63,1.21,5.51,1.55,2.01.36,4.03.73,6.08.69,2.26-.04,4.5-.58,6.69-1.21,3.42-.97,6.86-2.17,9.79-4.33,1.54-1.14,2.92-2.52,4.25-3.93.62-.66,2.75-3.04,4.1-5.36,2.96-5.13,2.51-10.81,2.34-12.93-.22-2.68-1.05-13.05-9.18-18.12-3.87-2.41-7.69-2.57-10.06-2.67-10.92-.45-18.66,6.4-19.7,7.35C2.32,24.43-1.21,34.33.37,42.9c.97,5.28,3.9,10.09,6.44,12.25,1.31,1.12,2.71,1.83,2.71,1.83"/>
  <path class="cls-1" d="M55.59,80.08c1.18-.67,2.25-1.83,2.45-2.05.8-.88,1.32-1.72,1.65-2.35.01.71.14,2.7,1.68,4.47,2.5,2.88,6.5,2.63,6.9,2.6-1.6.86-2.64,2.56-2.74,4.27-.02.27-.08,1.13.23,2.17.43,1.47,1.33,2.43,1.86,2.92-.17-.06-3.62-1.24-6.44.84-2.07,1.53-2.37,3.75-2.42,4.18-.17-.91-.4-1.8-1-2.52-.34-.42-.87-.85-1.82-1.26-2.91-1.25-8.45-1.59-9.23-1.63,1.53-.78,2.45-1.65,2.94-2.18.55-.59.82-1.06.97-1.34.28-.52.5-1.07.52-1.65.02-.59-.17-1.16-.36-1.72-.28-.83-.57-1.66-.99-2.42-.43-.78-.67-1.35-1.24-2.05.74.24,4.26,1.29,7.04-.29M35.77,68.09c-1.33,3.35-2.48,6.86-2.53,10.59,0,0-.08,3.18.57,5.9,2.15,9.01,20.83,22.16,35.18,14.62,11.05-5.81,12.34-20.11,12.39-20.72.34-4.51-.71-7.82-.92-8.5-1.59-5.21-6.35-9.55-10.72-12.7-5.48-3.95-12.48-5.44-18.66-4.16-1.09.22-2.17.53-3.16,1-1.76.83-3.23,2.13-4.67,3.42-1.54,1.38-3.08,2.76-4.31,4.43-1.36,1.84-2.3,3.97-3.16,6.12"/>
  <path class="cls-1" d="M55.48,89.7c.86,1.03,2.12,1.25,2.43,1.31,1.74.36,3.54-.64,4.67-1.95.27-.31.52-.66.58-1.05.04-.24,0-.48-.04-.71-.13-.74-.32-1.47-.58-2.18-.11-.3-.34-.68-.66-1.02-1.21-1.27-3.98-1.51-5.53-.29-.42.33-.63.67-.82.99-.74,1.21-1.32,3.38-.04,4.91"/>
</svg>