<?xml version="1.0" encoding="UTF-8"?>
<svg id="Layer_1" data-name="Layer 1" xmlns="http://www.w3.org/2000/svg" viewBox="0 0 157.05 105.66">
  <defs>
    <style>
      .cls-1 {
        fill: #1d1e2a;
      }
    </style>
  </defs>
  <path class="cls-1" d="M18.78,91.16c1.96-.15,3.91-.3,5.87-.44,1.68-2.67,3.59-4.17,4.99-5.03,6.07-3.73,14.64-2.75,22.17,2.08,14.74-.76,29.47-1.51,44.21-2.27,1.32,1.69,2.64,3.38,3.96,5.07,3.45-.68,6.89-1.37,10.34-2.06-.44-3.94-.88-7.88-1.32-11.83-4.7,1.63-9.41,3.27-14.11,4.9-10.17.33-20.75.98-31.7,2.04-3.72.36-7.39.76-11.01,1.19-1.5-1.01-7.91-5.06-16.45-3.71-6.52,1.03-10.7,4.64-12.24,6.12-1.9.08-3.8.17-5.71.25.33,1.23.66,2.46.99,3.68"/>
  <path class="cls-1" d="M44.87,100.17c-1.64,2.61-5.19,2.52-5.49,2.51-2.09-.08-3.53-1.16-4.18-1.67-.76-.59-2.56-1.98-2.85-4.38-.22-1.76.5-3.12.75-3.58,1.03-1.91,3.06-3.32,5.3-3.46,2.34-.14,4.3.98,5.45,2.31,1.22,1.41,1.46,2.96,1.59,3.73.18,1.12.46,2.9-.56,4.53M49.39,94.68c-.5-2.27-1.79-3.69-2.51-4.46-.56-.6-3.43-3.53-8.01-3.57-.87,0-4.09,0-6.94,2.38-.64.53-3.63,3.03-3.64,7.09-.01,3.65,2.39,6.01,2.98,6.59,3.53,3.48,8.32,2.96,9.2,2.87,1.44-.16,4.85-.52,7.17-3.48.3-.39,2.63-3.43,1.76-7.41"/>
  <path class="cls-1" d="M44.25,95.48c.13.81.34,2.11-.41,3.3-1.19,1.9-3.77,1.83-3.99,1.82-1.52-.06-2.56-.84-3.04-1.22-.55-.43-1.86-1.44-2.08-3.18-.16-1.28.36-2.27.55-2.61.75-1.39,2.23-2.41,3.85-2.51,1.71-.11,3.13.71,3.96,1.68.89,1.03,1.07,2.15,1.16,2.72"/>
  <path class="cls-1" d="M118.16,83.82c1.99-2.24,5.19-1.48,5.46-1.41,1.88.48,2.97,1.81,3.46,2.44.57.72,1.93,2.43,1.73,4.83-.15,1.77-1.06,2.96-1.38,3.37-1.31,1.67-3.42,2.67-5.47,2.38-2.15-.3-3.7-1.78-4.48-3.31-.83-1.62-.75-3.18-.71-3.96.06-1.13.15-2.93,1.39-4.34M113.01,88.34c0,2.32.9,3.96,1.4,4.85.39.69,2.42,4.11,6.56,5.03.79.18,3.7.77,6.75-1.01.68-.4,3.88-2.27,4.68-6.26.72-3.57-.99-6.34-1.41-7.03-2.52-4.08-6.96-4.49-7.77-4.56-1.33-.12-4.49-.41-7.17,2.05-.35.32-3.05,2.86-3.04,6.93"/>
  <path class="cls-1" d="M117.81,88.53c.04-.82.11-2.14,1.01-3.15,1.45-1.63,3.77-1.08,3.97-1.03,1.37.35,2.16,1.32,2.52,1.77.42.52,1.41,1.77,1.26,3.52-.11,1.29-.77,2.16-1,2.45-.95,1.22-2.49,1.94-3.98,1.73-1.56-.22-2.69-1.3-3.26-2.41-.6-1.17-.55-2.31-.52-2.88"/>
  <path class="cls-1" d="M145.66,59.1l-6.9-.19-7.07-2.15-15.58-5.08-.98-12.99,4.36-.33s8.19-.57,12.58-.5c4.39.07,6.97,3.41,6.97,3.41l5.74,6.1,3.79,11.08-2.9.67ZM156.43,79.67c-.38-2.53-.63-3.01-.95-5.48-.42-3.29-.25-4.57-.43-8.02-.24-4.69-.36-7.03-1.04-9.05-.88-2.61-1.63-2.56-6.79-9.33-3.3-4.32-3.99-5.66-6.74-8.62-3.46-3.73-4.97-4.42-5.91-4.74-2.18-.76-2.95-.14-7.87.06-5.17.2-5.75-.42-10.94-.25-2.04.07-4.77.26-7.99.78.89,6.69,1.6,13.94,2,21.68.37,7.15.43,13.9.27,20.2,3.26-.25,6.53-.49,9.79-.74l8.54-.65,3.39,2.25s2.12,3.24,2.96,8.37c.84,5.13,13.25,2.4,13.25,2.4,0,0,3.16-.24,9.08-.69-.01-3.32-.3-6.08-.62-8.19"/>
  <polygon class="cls-1" points="89.19 69.78 89.86 71.19 91.13 72.38 102.39 71.53 103.55 70.07 103.52 64.56 102.62 52.71 102.27 48.11 101.32 45.93 99.31 44.52 97.85 43.14 98.29 42.04 97.99 38.12 93.58 37.88 90.79 38.66 90.58 43.13 91.71 43.44 91.03 44.23 88.54 46.54 87.68 49.75 88.32 58.32 89.19 69.78"/>
  <polygon class="cls-1" points="72.65 71.03 73.32 72.44 74.6 73.63 85.86 72.78 87.02 71.32 86.98 65.82 86.09 53.96 85.74 49.37 84.78 47.18 82.78 45.77 81.31 44.39 81.75 43.29 81.46 39.37 77.05 39.13 74.26 39.91 74.04 44.39 75.17 44.69 74.49 45.49 72 47.79 71.14 51 71.79 59.57 72.65 71.03"/>
  <polygon class="cls-1" points="56.05 72.29 56.71 73.7 57.99 74.89 69.25 74.04 70.41 72.57 70.37 67.07 69.48 55.22 69.13 50.62 68.17 48.44 66.17 47.02 64.7 45.64 65.15 44.55 64.85 40.62 60.44 40.39 57.65 41.17 57.43 45.64 58.56 45.95 57.89 46.74 55.39 49.05 54.53 52.26 55.18 60.83 56.05 72.29"/>
  <polygon class="cls-1" points="38.48 73.62 39.14 75.03 40.42 76.22 51.68 75.37 52.84 73.9 52.8 68.4 51.91 56.55 51.56 51.95 50.6 49.77 48.6 48.35 47.13 46.97 47.58 45.88 47.28 41.95 42.87 41.72 40.08 42.5 39.86 46.97 40.99 47.28 40.32 48.07 37.82 50.38 36.96 53.59 37.61 62.16 38.48 73.62"/>
  <polygon class="cls-1" points="21.95 74.87 22.62 76.28 23.9 77.47 35.15 76.61 36.32 75.15 36.28 69.65 35.38 57.8 35.03 53.2 34.08 51.02 32.07 49.6 30.61 48.22 31.05 47.13 30.75 43.2 26.35 42.97 23.55 43.75 23.34 48.22 24.47 48.53 23.79 49.32 21.3 51.63 20.44 54.84 21.08 63.41 21.95 74.87"/>
  <polygon class="cls-1" points="4.38 76.2 5.05 77.61 6.32 78.8 17.58 77.94 18.74 76.48 18.71 70.98 17.81 59.13 17.46 54.53 16.51 52.35 14.5 50.93 13.04 49.55 13.48 48.46 13.18 44.53 8.77 44.3 5.98 45.08 5.77 49.55 6.9 49.86 6.22 50.65 3.73 52.96 2.87 56.17 3.51 64.74 4.38 76.2"/>
  <polygon class="cls-1" points="86.33 31.9 86.99 33.31 88.27 34.5 99.53 33.64 100.69 32.18 100.65 26.68 99.76 14.83 99.41 10.23 98.45 8.05 96.45 6.63 94.98 5.25 95.42 4.16 95.13 .23 90.72 0 87.93 .78 87.71 5.25 88.84 5.56 88.16 6.35 85.67 8.66 84.81 11.87 85.46 20.44 86.33 31.9"/>
  <polygon class="cls-1" points="69.79 33.15 70.46 34.56 71.73 35.75 82.99 34.9 84.15 33.43 84.12 27.93 83.22 16.08 82.87 11.48 81.92 9.3 79.91 7.88 78.44 6.5 78.89 5.41 78.59 1.48 74.18 1.25 71.39 2.03 71.18 6.5 72.3 6.81 71.63 7.6 69.14 9.91 68.27 13.12 68.92 21.69 69.79 33.15"/>
  <polygon class="cls-1" points="53.18 34.41 53.85 35.81 55.13 37 66.38 36.15 67.55 34.69 67.51 29.19 66.61 17.33 66.26 12.74 65.31 10.55 63.3 9.14 61.84 7.76 62.28 6.66 61.98 2.74 57.58 2.51 54.78 3.28 54.57 7.76 55.7 8.06 55.02 8.86 52.53 11.16 51.67 14.37 52.31 22.95 53.18 34.41"/>
  <polygon class="cls-1" points="35.61 35.73 36.28 37.14 37.55 38.33 48.81 37.48 49.97 36.02 49.94 30.52 49.04 18.66 48.69 14.07 47.74 11.88 45.73 10.47 44.27 9.09 44.71 7.99 44.41 4.07 40 3.84 37.21 4.61 37 9.09 38.13 9.39 37.45 10.19 34.96 12.49 34.1 15.7 34.74 24.27 35.61 35.73"/>
  <polygon class="cls-1" points="19.09 36.98 19.75 38.39 21.03 39.58 32.29 38.73 33.45 37.27 33.41 31.77 32.52 19.91 32.17 15.32 31.21 13.13 29.21 11.72 27.74 10.34 28.18 9.24 27.89 5.32 23.48 5.09 20.69 5.86 20.47 10.34 21.6 10.64 20.92 11.44 18.43 13.74 17.57 16.95 18.22 25.52 19.09 36.98"/>
  <polygon class="cls-1" points="1.52 38.31 2.18 39.72 3.46 40.91 14.72 40.06 15.88 38.6 15.84 33.1 14.95 21.24 14.6 16.65 13.64 14.46 11.64 13.05 10.17 11.67 10.61 10.57 10.32 6.65 5.91 6.42 3.12 7.19 2.9 11.67 4.03 11.97 3.35 12.77 .86 15.07 0 18.28 .65 26.85 1.52 38.31"/>
</svg>