<?xml version="1.0" encoding="UTF-8"?>
<svg id="Layer_1" data-name="Layer 1" xmlns="http://www.w3.org/2000/svg" viewBox="0 0 140.95 140.34">
  <defs>
    <style>
      .cls-1 {
        fill: #1d1e2a;
      }
    </style>
  </defs>
  <polygon class="cls-1" points="54.05 55.16 87.79 77.76 84.97 91.93 81.09 106.23 78.11 108.4 48.44 102.48 46.57 99.33 45.96 95.73 54.05 55.16"/>
  <polygon class="cls-1" points="69.33 29.14 74.73 25.54 70.48 23.01 73.5 13.94 79.91 13.94 89.72 17.3 87.99 25.96 85.38 29.38 89.07 35.48 93.26 40.66 94.09 46.42 89.55 69.1 55.77 46.46 56.95 40.54 61.28 33.27 69.33 29.14"/>
  <path class="cls-1" d="M124.46,68.61c-5.04,8.43-13.97,10.22-15.72,10.49l-.64-4.08c1.43-.22,8.73-1.67,12.81-8.52,3.18-5.32,2.54-10.72,2.13-12.78l4.04-.82c.51,2.54,1.28,9.16-2.63,15.72M101.49,65.08c1.35-.48,8.24-3.32,10.95-10.81,2.1-5.83.46-11.01-.35-12.96l3.82-1.58c.98,2.4,3.01,8.77.42,15.93-3.34,9.24-11.78,12.69-13.43,13.29l-1.4-3.88ZM133.39,34C119.95,12.51,87.43,4.22,80.31,2.38,75.25,1.11,71.45.14,66.06.01,47.07-.4,30.02,10.31,19.15,21.99l7.53,5c3.23-4.67,7.51-7.02,8.62-7.57l1.84,3.7c-.91.45-4.41,2.36-7.04,6.17h.01l7.06,4.73c3.14-6.89,9.15-10.18,10.5-10.84l1.84,3.69c-1.13.56-6.39,3.46-8.85,9.49l11.43,7.64.98-4.95,5.27-8.94,8.62-4.41-1.43-.82,4.99-15.07h10.05l13.93,4.7-2.67,13.19-1.47,1.96,2.13,3.56,4.69,5.72,1.06,7.59-4.99,25.06,39.51,26.47c10.5-21.82,11.07-47.36.61-64.07"/>
  <path class="cls-1" d="M22.78,109.39c-1.77,1.52-2.05,3.42-.6,5.12,1.45,1.7,3.35,1.71,5.14.18,1.79-1.53,2.12-3.43.65-5.16-1.48-1.73-3.36-1.7-5.18-.14"/>
  <polygon class="cls-1" points="85.96 127.27 89.05 126.06 85.79 122.39 85.96 127.27"/>
  <path class="cls-1" d="M20.22,98.79l-.94-1.61s-1.64.8-3.18,1.7c-1.58.92-3.1,1.98-3.11,1.99l.98,1.67c1.01,1.73,2.72,2.6,4.92,1.32,2.2-1.29,2.39-3.25,1.33-5.06"/>
  <path class="cls-1" d="M119.27,110.25c-.07.1-.21.14-.29.08l-1.5-1.02c-.09-.06-.11-.2-.04-.3l1.23-1.81c.07-.1.21-.14.3-.08l1.5,1.02c.09.06.11.2.04.3l-1.23,1.8ZM117.77,112.3l-1.34,1.73c-.08.1-.22.13-.3.06l-1.43-1.11c-.08-.07-.09-.21-.02-.31l1.34-1.73c.08-.1.22-.13.3-.06l1.43,1.11c.08.07.09.21.02.31M114.08,117.49l-7.08,4.57c-.1.07-.24.05-.3-.04l-2.67-4.44-2.94-4.27c-.06-.09-.02-.23.09-.29l6.96-4.49c.1-.07.24-.05.3.04l.72,1.12c.06.09.02.23-.09.29l-4.78,3.08,1.22,2.16,4.46-2.88c.1-.07.24-.05.3.04l.73,1.12c.06.09.02.23-.09.29l-4.46,2.88,1.79,2.51,4.9-3.16c.1-.07.24-.05.3.04l.72,1.12c.06.09.02.23-.09.29M105.46,123.07l-2.54,1.35c-.12.07-.28.08-.39.02l-2.06-.92-2.98-1.36-.38,1.48,1.58,2.82c.05.1,0,.23-.11.29l-2.07,1.1c-.11.06-.25.03-.3-.07l-2.31-4.64-2.57-4.51c-.05-.1,0-.23.11-.28l2.07-1.1c.11-.06.25-.03.3.07l1.93,3.85,1.14-5.52c.03-.14.12-.26.25-.32l2.41-1.29c.08-.04.17.01.15.09l-1.53,5.61,7.31,3.14c.08.04.08.15-.01.2M94.68,128.79l-2.17.85c-.13.05-.28.02-.35-.06l-1.81-2.04-4.33,1.7.09,2.71c0,.11-.08.23-.21.28l-2.13.84c-.1.04-.22-.02-.22-.11l.1-11.21c0-.11.08-.23.21-.28l2.96-1.16c.13-.05.28-.03.35.06l7.6,8.2c.07.07.03.18-.08.23M81.45,133.76l-2.33.49c-.12.02-.25-.04-.27-.15l-.84-4.6-5.35,1.13,1.09,4.55c.02.1-.06.22-.18.24l-2.33.49c-.12.03-.24-.04-.27-.15l-.91-5.1-1.23-5.04c-.02-.11.06-.22.18-.24l2.33-.49c.12-.03.24.04.27.15l.71,3.89,5.32-1.12-.92-3.85c-.02-.1.06-.22.19-.24l2.33-.49c.12-.02.25.04.27.15l.91,5.1,1.23,5.04c.02.11-.06.22-.18.24M63.05,136.48c-3.23-.03-5.46-1.22-5.59-3.73,0-.11.11-.2.23-.2l2.36.02c.12,0,.23.08.25.2.18,1.17.81,1.93,2.82,1.95,1.62.02,2.51-.39,2.52-1.41.03-2.43-7.93-.59-7.89-4.86.02-2.02,1.84-3.26,5.02-3.23,2.88.03,4.87,1,5.24,3.27.02.11-.07.2-.2.2l-2.36-.02c-.14,0-.25-.08-.26-.2-.17-.94-1.07-1.46-2.54-1.47-1.28-.01-2.2.36-2.22,1.26-.02,2.29,7.97.51,7.92,4.77-.02,2.28-2.06,3.49-5.31,3.45M54.64,126.44c-.03.1-.16.16-.28.12l-3.16-1.04-1.29,3.41-1.43,4.99c-.03.1-.16.16-.28.12l-2.33-.77c-.12-.04-.19-.16-.16-.26l1.8-4.87.98-3.51-3.16-1.04c-.12-.04-.19-.16-.16-.26l.42-1.27c.03-.1.16-.16.28-.12l9.01,2.96c.12.04.19.16.16.26l-.42,1.27ZM44.57,123.57l-1.9.78c-.12.04-.28.03-.4-.03l-.92-.47c-.1-.05-.13-.17-.07-.26l1.24-1.23.89-1.72c.05-.1.19-.13.3-.07l1.83.94c.11.06.16.19.11.28l-.79,1.53c-.06.11-.17.21-.29.25M35.97,128.57c-.06.09-.2.1-.3.02l-2.37-1.78c-.11-.09-.18-.23-.17-.34l.62-8.94-.41.61-1.94,2.73-2.04,2.72c-.07.09-.21.1-.31.02l-1.69-1.27c-.1-.08-.13-.21-.07-.3l3.22-4.06,3-4.23c.07-.09.21-.1.31-.02l2.29,1.72c.11.09.18.23.17.34l-.58,9.04.13-.21,1.96-2.76,2.35-3.14c.06-.09.21-.1.31-.02l1.69,1.27c.1.08.13.21.07.3l-3.22,4.06-3,4.23ZM20.8,115.67c-2.47-2.89-2.33-6.25.17-8.39,2.6-2.23,5.88-1.81,8.36,1.09,2.46,2.87,2.44,6.19-.2,8.45-2.5,2.14-5.85,1.74-8.33-1.14M12.39,103.29l-2.22-3.78c-.06-.11-.04-.24.06-.3l4.56-2.48,4.39-2.75c.09-.06.23,0,.29.1l2.2,3.75c1.8,3.08,1.9,6.52-1.38,8.44-3.29,1.93-6.12.04-7.89-2.97M107.93,107.43l1.34-1.73c.08-.1.21-.13.3-.06l5.72,4.44c.09.07.09.21.02.3l-1.34,1.73c-.08.1-.21.12-.3.06l-5.72-4.44c-.08-.07-.09-.21-.02-.3M110.37,104.19l1.23-1.8c.07-.1.21-.14.3-.08l5.99,4.08c.09.06.1.2.03.3l-1.23,1.8c-.07.1-.21.14-.29.08l-5.99-4.08c-.09-.06-.11-.2-.04-.3M91.52,80.25l-2.54,12.71-4.29,15.78-5.64,4.04-33.17-6.62-3.27-5.36-.87-5.1,8.59-43.02-10.7-7.16-.04-.03c.43,2.88,1.47,5.1,2.08,6.21l-3.61,2c-.97-1.79-2.84-5.87-2.78-11.11h-.03s-8.09-5.41-8.09-5.41v-.04h-.03c-.57,5.08,1.28,9.16,2.18,10.79l-3.61,2c-1.22-2.22-3.85-8.09-2.33-15.3l-9.45-6.33c-.08.09-.11.13-.15.2C-4.58,53.9-6.99,98.15,21.36,123.64c22.72,20.44,56.3,20.85,80,8.14,11.72-6.25,20.95-15.69,27.53-26.52l-37.38-25.01Z"/>
</svg>