<?xml version="1.0" encoding="UTF-8"?>
<svg id="Layer_1" data-name="Layer 1" xmlns="http://www.w3.org/2000/svg" viewBox="0 0 163.22 140.34">
  <defs>
    <style>
      .cls-1 {
        fill: #1d1e2a;
      }
    </style>
  </defs>
  <path class="cls-1" d="M50.78,18c2.65,1.06,5.03,3.02,6.11,5.66,1.08,2.64.64,5.97-1.46,7.9-2.14,1.98-5.51,2.13-8.21,1.06-3.31-1.31-10.57-6.71-8.86-11.01,1.81-4.56,8.61-5.14,12.43-3.61"/>
  <path class="cls-1" d="M66.43,38.77c-1.06-.2-1.95-.91-2.69-1.69-1.14-1.21-2.03-2.69-2.29-4.33-.25-1.64.21-3.43,1.42-4.56.95-.88,2.26-1.29,3.55-1.43,1.23-.14,2.57-.04,3.57.69,1,.73,1.5,1.94,1.95,3.1.39.98.77,1.98.9,3.03.13,1.05-.03,2.17-.65,3.03-.82,1.14-1.77.82-2.89,1.22-1.06.39-1.63,1.18-2.9.93"/>
  <path class="cls-1" d="M61.88,71.83c-1.35.79-2.95,1.06-4.51.98-1.15-.06-2.36-.35-3.16-1.17-.87-.89-1.08-2.26-.87-3.49.72-4.13,5.24-6.03,8.94-4.53,3.64,1.47,2.48,6.53-.4,8.22M48.17,65.93c-1.73.56-3.69.57-5.29-.29-1.6-.85-2.74-2.66-2.5-4.46.24-1.84,1.83-3.28,3.59-3.86,2.16-.7,7.9-1.01,8.81,1.79.97,2.97-2.13,6.01-4.62,6.82M43.99,74.17c-.5.92-1.41,1.55-2.36,1.98-1.65.75-3.73.97-5.21-.09-1.56-1.12-1.94-3.48-1.06-5.19.89-1.71,2.82-2.73,4.74-2.81.9-.04,1.84.12,2.56.65,1.24.9,2.05,4.12,1.33,5.45M39.73,44.39c.7-.75,1.64-1.22,2.56-1.68.29-.14.58-.29.87-.43,2.32-1.14,3.76-.27,3.47,2.4-.11,1-.67,2.02-1.61,2.38-.64.24-1.35.15-2.02.04-.87-.15-1.74-.33-2.6-.56-.43-.11-.91-.27-1.11-.67-.25-.49.06-1.08.43-1.48M26.85,32.11c-1.9,4.34.02-1.19-2.69,6.5-5.35,15.19-7.99,22.94-6.1,30.12.87,3.31,3.59,10.59,14.03,17.26-.87,4.06-1.73,8.12-2.6,12.18-1.38,3.6-2.77,7.21-4.15,10.81-3.77-.49-7.75-.91-11.94-1.2-3.46-.24-6.79-.38-9.98-.45-.91.4-1.81.81-2.72,1.21-.23.47-.46.94-.7,1.41,9.17,3.24,18.45,6.62,27.83,10.14,8.32,3.12,16.52,6.27,24.57,9.43.13-.33.25-.66.38-.98-1.24-1.19-2.77-2.64-4.55-4.26-3.03-2.76-5.43-4.79-6.34-5.56-2.36-1.98-5.26-4.34-8.67-6.9,1.29-3.63,2.57-7.25,3.86-10.88,1.91-3.34,3.82-6.68,5.74-10.02,7.98,1.48,16.93,1.21,23.13-4.02,2.99-2.53,5.03-5.97,7.02-9.34,6.58-11.17,7.22-9.98,11.72-22.14-19.28-7.77-38.56-15.53-57.84-23.29"/>
  <path class="cls-1" d="M67.32,16.72c-1.36.43-2.81.5-4.24.56-2.33.1-4.82.16-6.79-1.1-1.64-1.05-2.63-2.85-3.55-4.57-.65-1.22-1.31-2.48-1.46-3.85-.15-1.42.27-2.84.75-4.19.44-1.23,1.01-2.55,2.16-3.17,1.04-.55,2.3-.41,3.46-.24,2.82.39,5.73.82,8.19,2.27,4.31,2.57,8.01,12.21,1.47,14.3"/>
  <path class="cls-1" d="M116.21,37.6c-2.47,1.42-5.48,2.09-8.22,1.31-2.74-.78-5.08-3.19-5.31-6.03-.23-2.9,1.73-5.65,4.25-7.11,3.08-1.79,11.81-4.16,14.13-.16,2.47,4.24-1.28,9.94-4.84,12"/>
  <path class="cls-1" d="M127.83,75.7c-1.04-.69-1.53-1.99-1.58-3.23-.16-4.19,3.85-7,7.79-6.31,3.87.67,3.8,5.86,1.34,8.12-1.15,1.05-2.66,1.66-4.21,1.9-1.14.18-2.38.16-3.33-.48M120.73,71.39c-1.57.91-3.49,1.33-5.23.83-1.74-.5-3.24-2.03-3.38-3.84-.15-1.85,1.1-3.59,2.7-4.52,1.96-1.14,7.52-2.64,8.99-.1,1.57,2.7-.81,6.33-3.08,7.63M118.38,80.32c-.3,1-1.06,1.81-1.89,2.43-1.46,1.09-3.44,1.73-5.11,1-1.76-.77-2.63-2.99-2.12-4.85.51-1.85,2.18-3.26,4.04-3.74.87-.22,1.82-.26,2.64.1,1.4.62,2.87,3.59,2.44,5.05M163.02,128.03c-1.68-.35-3.75-.76-6.12-1.19-4.03-.73-7.14-1.17-8.32-1.34-3.05-.43-6.76-.88-11.02-1.24-.84-3.76-1.68-7.51-2.51-11.27-.16-3.84-.31-7.69-.46-11.53,7.54-2.99,14.99-7.97,17.45-15.7,1.19-3.73,1.09-7.73.98-11.64-.36-12.96.81-12.29-1.84-24.98-20.46,3.67-40.92,7.34-61.38,11.02.69,4.69-.62-1.02,1.18,6.93,3.54,15.72,5.42,23.68,10.84,28.75,2.5,2.34,8.67,7.06,21.05,7.16,1.42,3.9,2.85,7.8,4.27,11.7.74,3.79,1.49,7.57,2.23,11.36-3.45,1.58-7.05,3.35-10.75,5.33-3.06,1.63-5.95,3.28-8.69,4.92-.55.82-1.11,1.65-1.66,2.47.05.52.1,1.04.16,1.56,9.49-2.12,19.15-4.19,28.97-6.21,8.71-1.78,17.32-3.47,25.82-5.07-.07-.34-.14-.69-.2-1.03"/>
  <path class="cls-1" d="M142.23,39.08c-.64,1.36-1.9,2.33-3.21,3.07-2.02,1.13-4.34,1.84-6.65,1.62-2.31-.21-4.58-1.46-5.69-3.49-.87-1.59-.98-3.51-.73-5.31.23-1.72.82-3.5,2.16-4.61,1.33-1.11,3.15-1.37,4.87-1.59,1.47-.19,2.95-.37,4.42-.19,1.47.18,2.94.78,3.89,1.91,1.26,1.51.5,2.68.67,4.33.16,1.57,1.04,2.61.28,4.25"/>
  <path class="cls-1" d="M118.18,45.42c.18,1.68-.39,3.54-1.8,4.45-.96.62-2.15.72-3.28.77-1.48.06-2.96.06-4.44,0-.74-.03-1.58-.12-2.05-.7-.58-.71-.29-1.78.18-2.57.88-1.48,2.25-2.58,3.6-3.64.42-.34.85-.67,1.27-1.01,3.39-2.69,6.05-1.76,6.52,2.7"/>
  <path class="cls-1" d="M129.11,19.25c-1.24.71-2.64,1.08-4.03,1.44-2.26.59-4.68,1.17-6.87.35-1.83-.68-3.17-2.23-4.43-3.72-.89-1.06-1.8-2.15-2.23-3.46-.45-1.36-.33-2.84-.15-4.26.17-1.3.45-2.7,1.45-3.55.9-.76,2.16-.88,3.34-.97,2.84-.21,5.78-.41,8.48.5,4.76,1.6,10.4,10.26,4.44,13.67"/>
</svg>