<?xml version="1.0" encoding="UTF-8"?>
<svg id="Layer_1" data-name="Layer 1" xmlns="http://www.w3.org/2000/svg" viewBox="0 0 65.47 143.5">
  <defs>
    <style>
      .cls-1 {
        fill: #1d1e2a;
      }
    </style>
  </defs>
  <path class="cls-1" d="M8.59,133.87l-1.9-4.79-.83-79.64,3.86-11.37,9.94-8.06,6.38-6.55-6.57-2.25,1.52-13.45,8.87-1.86,14.58,1.72.13,12.55-2.64,5.47,6.88,7.37,7.34,5.95,2.82,7.77.69,65.66-1.22,20.94-3.49,3.84-42.78.45-3.55-3.77ZM29.57,0l-13.92,2.91-2.53,22.3,2.22.76h0s-10.62,8.62-10.62,8.62L0,48.5l.86,81.72,2.71,6.84,6.07,6.44,47.89-.5,6.59-7.26,1.35-23.09-.7-66.95-3.71-10.24-8.14-6.57-4.01-4.3,1.5-3.1-.2-19.05L29.58,0h-.01Z"/>
</svg>