<?xml version="1.0" encoding="UTF-8"?>
<svg id="Layer_1" data-name="Layer 1" xmlns="http://www.w3.org/2000/svg" viewBox="0 0 75.93 139.2">
  <defs>
    <style>
      .cls-1 {
        fill: #1d1e2a;
      }
    </style>
  </defs>
  <path class="cls-1" d="M51.05,67.64c-2.96,1.85-6.69,2.06-10.04,1.19-4.83-1.26-11.05-6.82-9.54-12.72,1.42-5.55,12.4-5.64,16.58-4.53,3.42.91,6.59,3.53,7.26,7.08.65,3.47-1.31,7.13-4.26,8.98M56.23,80.36c-.36.85-1.31,1.24-2.17,1.52-1.71.57-3.44,1.06-5.19,1.48-1.35.32-2.77.6-4.09.18-1.95-.62-3.21-2.66-3.55-4.72-.89-5.49,1.92-7.49,6.75-5.41.61.26,1.21.52,1.82.78,1.92.82,3.88,1.68,5.39,3.15.8.78,1.48,1.97,1.04,3.01M61.57,122.37c-1.71,1.43-4.24,1.32-6.3.51-1.18-.47-2.33-1.17-3-2.28-.97-1.6-.21-5.64,1.22-6.85.84-.71,1.97-.98,3.06-1,2.33-.05,4.74,1.07,5.94,3.12s.89,4.99-.92,6.5M40.57,102.63c.91-3.53,7.89-3.59,10.55-2.88,2.17.58,4.2,2.25,4.62,4.51.42,2.21-.83,4.54-2.71,5.72s-4.26,1.31-6.39.76c-3.08-.8-7.03-4.34-6.07-8.09M20,51.21c-8.06-2.08-4.27-14.31.78-17.82,2.87-1.99,6.36-2.74,9.75-3.44,1.4-.29,2.91-.57,4.21.04,1.44.68,2.23,2.26,2.84,3.76.67,1.64,1.28,3.36,1.2,5.14-.08,1.71-.79,3.32-1.49,4.88-.99,2.2-2.06,4.51-3.97,5.93-2.29,1.7-5.32,1.82-8.14,1.88-1.73.03-3.49.06-5.18-.37M29.65,75.52c-.65,2.8-2.9,5.05-5.53,6.08-2.63,1.03-5.57.96-8.3.28-1.77-.44-3.56-1.18-4.75-2.6-1.42-1.71-.73-3.25-1.05-5.18-.34-2.03-1.6-3.18-.61-5.4.74-1.67,2.27-2.88,3.93-3.58,1.66-.71,3.46-.98,5.23-1.25,2.08-.31,4.29-.61,6.21.27,1.92.88,3.19,2.81,4.02,4.79.86,2.07,1.36,4.39.86,6.59M39.73,118.25c-.91,1.08-2.36,1.53-3.74,1.69-1.88.22-3.85,0-5.53-.87-3.61-1.88-5.37-8.05-1.06-10.15,4.38-2.14,9.98-.12,11.14,4.94.35,1.5.18,3.22-.81,4.39M49.25,27.93l-8.72-3.95-6.64-4.24.87-4.64L30.68,0,13.67,2.54,3.58,7.75l2.54,17.64,4.53.31-1.99,3.63L.88,40.29l-.88,13.2,8.91,32.98,11.92,44.09,3.61,4.98,5.77,3.66,42.37-12.11,3.35-6.61-4.27-21.47-12.33-45.6-4.78-17.68-5.3-7.79Z"/>
</svg>