<?xml version="1.0" encoding="UTF-8"?>
<svg id="Layer_1" data-name="Layer 1" xmlns="http://www.w3.org/2000/svg" viewBox="0 0 593.9 87.8">
  <defs>
    <style>
      .cls-1 {
        fill: #1d1e2a;
      }
    </style>
  </defs>
  <path class="cls-1" d="M156.4,18.62c-.48.42-.95.84-1.43,1.26.64,1.67.8,3.88,1.99,4.91,8.39,7.19,16.88,14.29,25.67,20.97,1.22.93,4.34-.62,6.58-1.02-.02-.86-.05-1.72-.07-2.58-10.92-7.85-21.83-15.69-32.75-23.54M214.59,85.88h-69.21c-.77-17.34-1.54-34.53-2.41-54.19-7.12,8.92-14.22,15.61-18.56,23.76-7.19,13.51-19.22,13.9-31.69,14.32-1.73.06-3.95-.64-5.17-1.79-10.18-9.71-20.18-19.61-30.44-29.66,7.41-11.22,14.09-21.68,21.22-31.82,1.28-1.82,4.41-3.2,6.75-3.3,8.87-.38,17.79-.5,26.65.04,2.86.18,6.17,2.1,8.24,4.22,7.3,7.49,14.15,15.41,22.27,24.38V2.9c11.15,6.24,21.8,11.83,32.03,18.1,4.97,3.04,8.6,2.82,13.29-.55,8.43-6.05,17.38-11.38,27.04-17.61v83.04Z"/>
  <path class="cls-1" d="M440.38,68.13c2.05-.47,4.84-.7,4.88-1.17,1.52-17.29,2.79-34.61,4.14-52.45-7.12,1.86-10.08,22.79-9.01,53.62M499.46,75.6c-25.1,2.14-49.82,4.25-75.71,6.47,3.83-27.93,7.51-54.77,11.22-81.8h64.49v75.33Z"/>
  <path class="cls-1" d="M0,85.4C1,57.91,1.97,30.93,2.97,3.51h64.82c-11.18,13.94-21.7,27.08-32.6,40.67,19.19,13.65,37.9,26.95,57.96,41.22H0Z"/>
  <path class="cls-1" d="M593.9,78.91c-28.06,1.06-54.45,2.06-81.74,3.09,1.15-27.7,2.26-54.3,3.41-81.97,10.54,0,20.7-.13,30.84.15,1.43.04,3.3,1.85,4.14,3.31,14.23,24.59,28.34,49.25,43.34,75.42"/>
  <path class="cls-1" d="M223.5,81.32V6.99h45.17c-3.62,9.31-6.86,18.34-10.66,27.13-1.9,4.4-1.07,6.98,2.85,9.62,5.96,4,11.15,9.27,17.39,12.72,10.36,5.72,11.93,14.01,9.19,24.87h-63.94Z"/>
  <path class="cls-1" d="M295.03,6.84h48.85v57.93c-6.99,5.71-13.28,14.93-21.09,16.46-22.7,4.43-23.07,3.02-24.32-19.68-.99-18.07-2.26-36.12-3.43-54.7"/>
  <path class="cls-1" d="M426.15,3.79c-18.53,27.98-37.06,55.97-55.63,84.01-16.19-13.41-21.61-30.19-18.56-50.01.16-1.04.47-2.26,1.16-3,13.22-14.25,26.56-28.78,46.53-33.13,8.07-1.76,16.85-.29,25.31-.29.4.81.79,1.61,1.19,2.42"/>
</svg>