<?xml version="1.0" encoding="UTF-8"?>
<svg id="Layer_1" data-name="Layer 1" xmlns="http://www.w3.org/2000/svg" viewBox="0 0 169.83 76.91">
  <defs>
    <style>
      .cls-1 {
        fill: #1d1e2a;
      }
    </style>
  </defs>
  <path class="cls-1" d="M73.71,75.82c-11.57-2.78-20.79-12.18-23.5-23.73C17.87,75.02-17.8,12.38,9.99.45c8.92-2.72,17.49,7.38,13.47,15.67-1.04,6.23,4.42,12.94,8.95,16.83,9.85,4.55,11.79-15.78,17.04-20.64,3.96-4.15,10.93-4.64,15.49-1.2,7.71,5.32,3.87,23.11,6.84,32.53.49,4.73,4.43,11.3,9.76,9.7,8.78-11.86,11.77-27.37,13.61-41.72,1.33-4.93,5.96-8.65,11.12-8.57,7.88-.16,11.38,7.19,12.58,13.91,2.44,7.1,12.09,23.63,20.64,15.83,3.6-4.51,5.68-10.1,6.97-15.67-.18-7.56,5.12-15.28,13.41-14.06,21.15,4.04,3.56,40.07-6.63,48.35-12.49,11.34-31.93,6.61-42.66-4.85-4.72,16.16-17.62,35.12-36.88,29.25"/>
</svg>