<?xml version="1.0" encoding="UTF-8"?>
<svg id="Layer_1" data-name="Layer 1" xmlns="http://www.w3.org/2000/svg" viewBox="0 0 127.18 104.54">
  <defs>
    <style>
      .cls-1 {
        fill: #1d1e2a;
      }
    </style>
  </defs>
  <path class="cls-1" d="M36.12,40.77l-13.43-30.85c-.42-.96.82-1.76,1.53-.99l20.23,22.29c.54.6,1.54.26,1.6-.55L48.15.86c.07-1.01,1.48-1.18,1.79-.22,2.52,7.81,7.51,23.79,8.39,30.77.11.83,1.18,1.09,1.67.4l15.29-21.89c.55-.78,1.78-.32,1.67.63l-3.34,29.71c-.07.6.44,1.1,1.04,1.02,5.69-.79,30.54-4.15,39.67-3.98.92.02,1.24,1.22.46,1.7-3.84,2.36-12.76,7.38-27.71,13.31-.74.3-.79,1.33-.07,1.68,7.29,3.55,33.55,16.53,39.88,22.34.64.59.16,1.66-.71,1.59-8.69-.72-42.25-3.73-50.48-7.97-.62-.32-1.35.12-1.35.81v32.86c0,.85-1.06,1.25-1.62.6l-23.68-27.62c-.32-.37-.87-.43-1.26-.13l-30.62,23.53c-.81.62-1.89-.35-1.34-1.22l21.2-33.99c.42-.68-.16-1.54-.95-1.39L1.1,70.01c-.96.18-1.51-1.06-.72-1.64l35.46-26.49c.34-.26.46-.71.29-1.1"/>
</svg>