<?xml version="1.0" encoding="UTF-8"?>
<svg id="Layer_1" data-name="Layer 1" xmlns="http://www.w3.org/2000/svg" viewBox="0 0 146.4 54.87">
  <defs>
    <style>
      .cls-1 {
        fill: #1d1e2a;
      }
    </style>
  </defs>
  <path class="cls-1" d="M146.4,54.87c-.05-1.24-.1-2.48-.15-3.72-.05-2.32.01-4.64.07-6.96.12-4.93.24-9.86-.64-14.74-1.66-10.92-6.97-22.39-16.74-28.22-8.02-3.42-17.71.69-23.2,6.93-10.65,11.09-11.4,27.36-16.53,41.12-2.25-11.27-3.64-25.96-16.25-30.25-4.33-1.38-8.85.63-12.45,2.98-10.65,6.85-14.02,19.98-16.9,31.54-3.48-7.35-5.03-16.12-11.6-21.51-7.92-6.77-19.11-5.53-25.09,3.09-3.81,6-5.76,12.75-6.91,19.74h146.4Z"/>
</svg>