<?xml version="1.0" encoding="UTF-8"?>
<svg id="Layer_1" data-name="Layer 1" xmlns="http://www.w3.org/2000/svg" viewBox="0 0 119.78 104.54">
  <defs>
    <style>
      .cls-1 {
        fill: #1d1e2a;
      }
    </style>
  </defs>
  <path class="cls-1" d="M66.65,54.47c-.13-.34-.57-1.55-.77-2.1-.35-.68-.51-1.43-.33-2.15-1.5-4.35-3.34-5.65-6.21-5.24-3.24.47-6.43,5.3-7.68,8.79-1.13,3.49-1.26,8.74-.75,11.4,1.38,4.52,1.63,5.23,4.75,7.29,1.81.97.88.63,2.48,1.03.37.03.74.02,1.11-.01.19-.04.46-.09.67-.14,7.39-2.58,8.72-11.82,6.73-18.86M70.61,69.13c-3.49,7.86-11.87,12.45-19.32,6.55-8.42-6.09-7.42-22.05-1.18-29.42,3.72-5.63,11.59-8.29,16.69-2.89,1.58,1.68,2.41,3.81,3.09,6,.74,1.15,1.05,2.6,1.45,3.91,1.07,5.18,1.36,10.89-.73,15.85M108.84,41.58c-10.85-1.96-21.74,1.45-32.66.94,4.33-4.81,6.32-11.11,8.99-16.91,1.64-4.83,7.2-14.54-.13-16.89-13.52-.16-18.59,15.78-25.73,24.79-.79-7.68-3.33-14.92-6.12-22.06-1.5-4.5-3.98-9.13-8.6-10.93-4.93-2.16-9.3,2.87-10.08,7.45-1.42,9,1.68,17.86,2.85,26.67-6.43-3.86-12.18-9.31-19.83-10.65-3.42-.66-10.61-.48-9.38,4.7,4.19,9.12,13.89,14.13,20.36,21.5-8.47-1.27-18.64-3.48-26.02,2.13-1.98,1.93-3.93,5.86-1.01,7.83,8.62,4.57,18.84,4.47,28.36,4.88-3.63,6.53-4.37,14.08-4.13,21.44.2,4.35-.08,8.97,1.66,13.05,2.29,5.41,8.88,3.52,11.51-.58,3.95-4.86,5.19-11.21,7.15-17.03,1.58,7.33,4.89,14.66,11.57,18.56,3.43,1.91,7.42,5.11,11.52,3.74,7.14-5.15,2.92-16.11-.76-22.31,8.49,8.27,22.87,19.95,35.23,18.9,11.96-4.44-1.73-20.04-7.7-24.28,6.35,2.24,16.59,6.56,22.39,1.62,2.33-4.9-2.82-9.5-6.51-11.96-6.6-4.04-14.39-5.51-21.63-8.03,8.87-.16,18.42-.47,26.41-4.75,8.55-4.9-2.08-11.41-7.73-11.83"/>
</svg>