<?xml version="1.0" encoding="UTF-8"?>
<svg id="Layer_1" data-name="Layer 1" xmlns="http://www.w3.org/2000/svg" viewBox="0 0 175.21 73.18">
  <defs>
    <style>
      .cls-1 {
        fill: #1d1e2a;
      }
    </style>
  </defs>
  <path class="cls-1" d="M37.49,24.35c7.66,6.88,6.16,32.49,19.67,28.45,6.87-2.87,8.64-15.64,11.87-22.01,2.83-6.79,5.69-13.66,10.67-19.19,2.8-3.38,5.33-7.24,9.3-9.34,12.3-6.27,18.1,1.46,22.33,12.27,6.05,12.13,5.06,28.23,15.51,37.88,7.77,3.96,12.19-20.31,15.1-25.28,3.41-9.16,15.57-21.84,25.27-13.42,3.35,3.54,4.61,8.43,5.88,13.01.68,2.66,1.43,5.31,2.13,7.97-1.25.29-2.5.58-3.74.87-1.44.34-2.89.62-4.32.99-1.01.26-2.02.52-3.03.78-.64.16-1.26.4-1.88.62-.11-.53-.23-1.05-.37-1.57-.55-2.59-1.5-6.8-4.83-4.15-4.71,3.51-5.28,9.74-6.31,15.08-.7,3.45-2.2,6.65-3.6,9.85-3.2,10.4-14.75,20.51-25.63,13.94-2.29-1.43-3.88-3.65-5.67-5.61-2.74-3.24-5.94-6.15-8.01-9.9-2.93-5.83-4.19-12.4-5.03-18.83-1.18-6.56.07-18.26-8.73-19.29-4.44,2.01-5.43,8.91-8.09,12.75-4.09,7.79-6.76,16.12-9.52,24.42-2.82,5.68-6.58,11.76-12.72,14.18-6.4,2.02-13.77,2.76-19.84-.63-3.85-1.66-5.12-5.71-5.84-9.5-1.61-6.42-2.63-13.09-5.39-19.14-1.65-3.02-3.9-7.39-8.01-5.51-3.88,1.33-6.46,4.46-8.22,8.04-.74-.15-1.49-.3-2.23-.45-.75-.15-1.51-.25-2.27-.37-.73-.11-1.46-.24-2.19-.32-1.73-.19-3.47-.39-5.2-.55-1.5-.14-3-.27-4.51-.41,6.03-15.43,22.36-30.07,37.49-15.63"/>
</svg>