<?xml version="1.0" encoding="UTF-8"?>
<svg id="Layer_1" data-name="Layer 1" xmlns="http://www.w3.org/2000/svg" viewBox="0 0 108.83 104.54">
  <defs>
    <style>
      .cls-1 {
        fill: #1d1e2a;
      }
    </style>
  </defs>
  <path class="cls-1" d="M51.79,0c-1.96,7.36-3.93,14.71-5.89,22.06-10.58-1.83-21.29-2.87-32.02-3.09,5.43,8.84,10.85,17.68,16.29,26.7-10.21,1.56-20.49,3.14-30.18,6.75,8.62,7.59,18.95,13.22,29.78,17.05-3.64,6.55-7.27,13.1-10.91,19.65,9.47-3.35,18.64-7.56,27.4-12.31,5.08,9.87,11.23,19.19,18.31,27.73,2.41-12.52,4.82-25.03,7.53-37.23,11.06-2.94,22.12-5.88,33.17-8.82-8.54-3.53-16.88-7.55-25.02-11.78,9.92-3.11,19.52-7.28,28.56-12.44-9.78-1.94-19.41-4.63-28.73-8.04,2.99-7,4.93-14.44,5.74-22.01-7.08,4.7-14.17,9.4-21.21,14.12-2.81-6.82-7.45-12.87-12.84-18.33"/>
</svg>